<svg width="16" height="18" fill="none" viewBox="0 0 16 18" xmlns="http://www.w3.org/2000/svg">
  <path fill="#fff" d="M6.207 7.59c-.501 0-.897.438-.897.972s.405.971.897.971c.502 0 .898-.437.898-.97.009-.535-.396-.972-.898-.972m3.212 0c-.501 0-.897.438-.897.972s.405.971.897.971c.502 0 .898-.437.898-.97 0-.535-.396-.972-.898-.972"/>
  <path fill="#fff" d="M13.696.25H1.904C.909.25.1 1.055.1 2.053v11.83c0 .997.81 1.802 1.804 1.802h9.98l-.467-1.618 1.126 1.04 1.065.98L15.5 17.75V2.053c0-.998-.81-1.803-1.804-1.803M10.3 11.678s-.317-.377-.58-.709c1.152-.324 1.592-1.041 1.592-1.041a5 5 0 0 1-1.012.516 5.8 5.8 0 0 1-1.276.376 6.2 6.2 0 0 1-2.279-.008 7.4 7.4 0 0 1-1.294-.377 5 5 0 0 1-.642-.297c-.026-.018-.053-.027-.08-.044a.1.1 0 0 1-.034-.026c-.159-.088-.247-.149-.247-.149s.423.7 1.54 1.032c-.264.333-.59.727-.59.727-1.944-.062-2.683-1.33-2.683-1.33 0-2.818 1.267-5.102 1.267-5.102 1.267-.945 2.473-.918 2.473-.918l.088.105c-1.584.455-2.315 1.146-2.315 1.146s.194-.105.52-.254c.941-.411 1.689-.525 1.997-.551.053-.009.097-.018.15-.018a7.2 7.2 0 0 1 4.427.823s-.696-.656-2.192-1.111l.123-.14s1.206-.027 2.473.918c0 0 1.267 2.284 1.267 5.102 0 0-.748 1.268-2.693 1.33"/>
</svg>
