<svg width="18" height="18" fill="none" viewBox="0 0 18 18" xmlns="http://www.w3.org/2000/svg">
  <path fill="#fff" fill-rule="evenodd" d="M9 .875C4.513.875.875 4.605.875 9.205c0 3.682 2.328 6.805 5.557 7.905.406.078.555-.18.555-.4 0-.2-.008-.856-.01-1.552-2.262.504-2.738-.982-2.738-.982-.37-.963-.901-1.22-.901-1.22-.738-.516.055-.505.055-.505.815.059 1.245.858 1.245.858.726 1.273 1.901.905 2.364.692.073-.538.284-.906.516-1.114-1.805-.212-3.702-.926-3.702-4.117 0-.91.318-1.653.837-2.236-.084-.21-.362-1.057.078-2.205 0 0 .682-.223 2.235.854A7.6 7.6 0 0 1 9 4.903c.69.003 1.386.095 2.036.28 1.55-1.077 2.232-.854 2.232-.854.442 1.148.164 1.995.079 2.205.52.583.835 1.327.835 2.236 0 3.2-1.9 3.904-3.709 4.11.292.259.552.767.552 1.543 0 1.115-.01 2.012-.01 2.286 0 .222.147.482.559.4 3.226-1.102 5.55-4.224 5.55-7.903 0-4.6-3.637-8.331-8.124-8.331" clip-rule="evenodd"/>
  <path fill="#fff" d="M3.952 12.835c-.017.042-.082.054-.14.025-.059-.027-.09-.084-.072-.125.017-.043.08-.054.14-.026.059.028.093.085.072.126m.33.377c-.039.037-.114.02-.165-.039-.054-.058-.063-.135-.024-.172.04-.037.113-.02.167.039.052.058.063.135.022.172m.321.48c-.05.036-.132.003-.182-.071-.05-.075-.05-.163.001-.199.05-.036.13-.004.182.07.05.075.05.164-.001.2m.437.464c-.044.051-.14.038-.208-.031-.071-.068-.09-.163-.046-.213.046-.05.14-.036.21.032.07.066.092.163.045.212m.606.269c-.02.065-.112.095-.204.068-.091-.03-.152-.105-.133-.171s.11-.097.203-.068c.093.03.152.105.134.171m.664.049c.003.069-.075.126-.172.127-.097.003-.176-.054-.176-.122s.076-.125.173-.126.175.053.175.121m.619-.107c.012.067-.056.135-.152.154-.095.018-.182-.023-.194-.09-.012-.068.056-.137.15-.155.097-.018.183.023.196.09"/>
</svg>
