<svg width="18" height="14" fill="none" viewBox="0 0 18 14" xmlns="http://www.w3.org/2000/svg">
  <path fill="#fff" d="M15.958 3.548c.011.15.011.298.011.449 0 4.587-3.611 9.878-10.216 9.878v-.003A10.4 10.4 0 0 1 .25 12.316q.426.05.855.05a7.37 7.37 0 0 0 4.459-1.489c-1.537-.028-2.884-.997-3.355-2.41a3.7 3.7 0 0 0 1.621-.06C2.155 8.078.95 6.655.95 5.002V4.96c.5.27 1.058.418 1.63.435C1.002 4.374.516 2.345 1.469.758c1.822 2.17 4.512 3.488 7.4 3.627a3.4 3.4 0 0 1 1.038-3.317c1.446-1.314 3.72-1.247 5.08.15a7.4 7.4 0 0 0 2.28-.842 3.5 3.5 0 0 1-1.579 1.92 7.3 7.3 0 0 0 2.062-.546 7.2 7.2 0 0 1-1.792 1.798"/>
</svg>
