<svg width="24" height="24" fill="none" viewBox="0 0 24 24" xmlns="http://www.w3.org/2000/svg">
  <path fill="#34EDB3" fill-rule="evenodd" d="M12.445 2.396 12 2.068l-.445.328C9.848 3.655 8.22 5.83 7.024 8.146 5.828 10.46 5 13.038 5 15.15c0 2.063.767 3.736 2.065 4.885 1.287 1.14 3.038 1.715 4.935 1.715 1.888 0 3.638-.545 4.928-1.659C18.23 18.966 19 17.314 19 15.25c0-2.11-.827-4.712-2.022-7.051-1.196-2.34-2.824-4.542-4.533-5.803M6.5 15.15c0-1.779.717-4.11 1.856-6.316.827-1.6 1.843-3.07 2.894-4.165v15.544c-1.281-.127-2.381-.584-3.19-1.3-.952-.844-1.56-2.096-1.56-3.763m6.25 5.065c1.289-.122 2.39-.562 3.197-1.259.947-.817 1.553-2.04 1.553-3.706q0-.317-.03-.657l-4.72 2.83zm0-4.54v-1.25l4.156-2.494q.173.547.298 1.072zm0-3 3.634-2.18c-.22-.539-.47-1.08-.742-1.614-.827-1.618-1.842-3.104-2.892-4.207z" clip-rule="evenodd"/>
</svg>
