<svg width="250" height="32" fill="none" viewBox="0 0 250 32" xmlns="http://www.w3.org/2000/svg">
  <path fill="#00D1FF" d="M10.193 7.99q-.442-.51-1.09-.51H.264a.25.25 0 0 1-.191-.075A.23.23 0 0 1 0 7.24v-6q0-.09.074-.165A.25.25 0 0 1 .264 1h9.34q3.534 0 6.098 2.91L17.97 6.7l-4.419 5.43zm16.32-4.11Q29.078 1 32.642 1h9.31q.117 0 .176.06t.059.18v6q0 .09-.059.165-.06.075-.177.075h-8.837q-.648 0-1.09.51l-6.51 7.98 6.539 8.04q.442.48 1.06.48h8.838q.118 0 .177.075a.3.3 0 0 1 .059.195v6q0 .09-.059.165-.06.075-.177.075h-9.309q-3.565 0-6.098-2.91l-5.42-6.66-5.421 6.66Q13.139 31 9.574 31H.264q-.117 0-.176-.075a.3.3 0 0 1-.059-.195v-6q0-.09.059-.165t.177-.076h8.837q.62 0 1.09-.51l6.393-7.86z"/>
  <path fill="#fff" d="M219.763 14.405h-2.946c-.86 0-1.317.495-1.317 1.263v.238c0 .769.549 1.263 1.317 1.263h3.55c1.446 0 2.581 1.098 2.581 2.543v.604c0 1.446-1.135 2.544-2.581 2.544h-3.806c-1.482 0-2.69-1.135-2.69-2.635v-.238h1.629v.073c0 .787.603 1.354 1.409 1.354h3.092c.842 0 1.318-.494 1.318-1.262v-.238c0-.769-.549-1.263-1.318-1.263h-3.55c-1.446 0-2.58-1.08-2.58-2.544v-.622c0-1.446 1.134-2.544 2.58-2.544h3.66c1.464 0 2.69 1.153 2.69 2.636v.238h-1.647v-.055c0-.806-.604-1.355-1.391-1.355m-10.877 0h-3.13c-.805 0-1.409.604-1.409 1.41v1.28h5.838v-1.372c0-.769-.531-1.318-1.299-1.318m.256 8.455h-3.752c-1.5 0-2.69-1.19-2.69-2.672v-4.556c0-1.501 1.19-2.69 2.69-2.69h3.843a2.574 2.574 0 0 1 2.599 2.598v2.91h-7.485v1.555c0 .787.604 1.391 1.409 1.391h3.038c.787 0 1.391-.604 1.391-1.39v-.239h1.647v.494c0 1.501-1.226 2.599-2.69 2.599m-15.269-7.887v7.887h-1.666v-7.485c0-.567-.311-.951-.933-.951h-3.294c-.311 0-.567.22-.567.549v7.887h-1.666v-9.919h1.666v1.098l1.281-1.098h2.964c.879 0 1.647.494 1.977 1.208l1.39-1.208h2.636c1.445 0 2.69 1.19 2.69 2.69v7.229h-1.666v-7.027c0-.805-.622-1.41-1.409-1.41h-2.836c-.311 0-.567.22-.567.55m-13.088-2.032c1.464 0 2.69 1.19 2.69 2.69v4.557a2.68 2.68 0 0 1-2.69 2.672h-3.953c-1.464 0-2.69-1.19-2.69-2.672v-4.556c0-1.464 1.19-2.69 2.69-2.69zm1.025 7.046v-4.154c0-.805-.622-1.41-1.409-1.41h-3.184c-.787 0-1.41.605-1.41 1.41v4.154c0 .787.623 1.39 1.41 1.39h3.184c.787 0 1.409-.603 1.409-1.39m-17.433-5.014v7.887h-1.665V9.39h1.665v4.612l1.281-1.062h3.532c1.464 0 2.69 1.19 2.69 2.69v7.229h-1.665v-7.027c0-.806-.604-1.41-1.41-1.41h-3.861c-.311 0-.567.22-.567.55m-3.55 5.985v1.903h-1.867v-1.903zm-5.398-8.016v-3.55h1.665V22.86h-1.665v-1.098l-1.318 1.098h-3.514c-1.482 0-2.69-1.226-2.69-2.672v-4.557c0-1.5 1.245-2.69 2.69-2.69zm-4.447 8.437h3.879c.311 0 .568-.202.568-.55v-6.404h-4.447c-.787 0-1.409.604-1.409 1.409v4.154c0 .787.622 1.39 1.409 1.39m-12.84-6.404v7.887h-1.665v-9.919h1.665v1.062l1.281-1.062h3.532c1.464 0 2.69 1.19 2.69 2.69v7.229h-1.665v-7.027c0-.805-.604-1.41-1.409-1.41h-3.862c-.311 0-.567.22-.567.55m-10.28 6.405h3.825c.311 0 .567-.202.567-.55v-7.887h1.665v9.919h-1.665v-1.098l-1.281 1.098h-3.495c-1.464 0-2.69-1.19-2.69-2.672v-7.247h1.665v7.046c0 .787.604 1.39 1.409 1.39m-7.982-8.436c1.464 0 2.69 1.19 2.69 2.69v4.557a2.68 2.68 0 0 1-2.69 2.672h-3.952c-1.464 0-2.691-1.19-2.691-2.672v-4.556c0-1.464 1.19-2.69 2.691-2.69zm1.025 7.046v-4.154c0-.805-.622-1.41-1.409-1.41h-3.184c-.787 0-1.409.605-1.409 1.41v4.154c0 .787.622 1.39 1.409 1.39h3.184c.787 0 1.409-.603 1.409-1.39m-12.889-5.582h-2.947c-.86 0-1.317.495-1.317 1.263v.238c0 .769.549 1.263 1.317 1.263h3.55c1.446 0 2.581 1.098 2.581 2.543v.604c0 1.446-1.135 2.544-2.581 2.544h-3.806c-1.482 0-2.69-1.135-2.69-2.635v-.238h1.629v.073c0 .787.604 1.354 1.409 1.354h3.092c.842 0 1.318-.494 1.318-1.262v-.238c0-.769-.549-1.263-1.318-1.263h-3.55c-1.445 0-2.58-1.08-2.58-2.544v-.622c0-1.446 1.135-2.544 2.58-2.544h3.66c1.464 0 2.69 1.153 2.69 2.636v.238h-1.647v-.055c0-.806-.604-1.355-1.39-1.355M93.83 21.378h3.733c.311 0 .567-.202.567-.55v-6.404h-4.3c-.787 0-1.41.604-1.41 1.409v4.154c0 .787.623 1.39 1.41 1.39m2.983 1.482h-3.367c-1.483 0-2.69-1.226-2.69-2.672v-4.556c0-1.501 1.244-2.69 2.69-2.69h6.35v9.918H98.13v-1.098zm-11.748-7.886v7.887H83.4v-9.919h1.665v1.043l1.28-1.043h3.423v1.483h-4.136c-.31 0-.567.22-.567.549m-3.593 6.405v1.482H79.44c-1.465 0-2.58-1.08-2.58-2.58v-5.856h-1.72V12.94h1.72v-2.177h1.665v2.177h2.965v1.483h-2.965v5.654c0 .787.513 1.3 1.3 1.3zM71.749 9.391h1.665V22.86h-1.665zM66.21 22.86h-5.526c-1.574 0-2.91-1.336-2.91-2.91v-9.9h1.775v9.735c0 .842.677 1.52 1.52 1.52h4.739c.842 0 1.537-.696 1.537-1.538V10.05h1.793v9.9c0 1.574-1.354 2.91-2.928 2.91"/>
</svg>
