<svg width="24" height="24" fill="none" viewBox="0 0 24 24" xmlns="http://www.w3.org/2000/svg">
  <g fill="#fff" clip-path="url(#a)">
    <path fill-rule="evenodd" d="M3.76 5.53H2.11v-1.5h19.78v1.5h-1.64v8.2a8.24 8.24 0 0 1-8.251 8.24 8.24 8.24 0 0 1-8.24-8.24zm1.5 0v8.2A6.74 6.74 0 0 0 12 20.47v.75-.75a6.74 6.74 0 0 0 6.75-6.74v-8.2z" clip-rule="evenodd"/>
    <path d="M9.584 10.296a.28.28 0 0 1 .22.102l.676.828.89-1.086-.456-.558Q10.397 9 9.685 9H7.803a.05.05 0 0 0-.038.015.05.05 0 0 0-.015.033v1.2q0 .018.015.033t.038.015zM14.327 9q-.718 0-1.235.576l-2 2.448-1.288 1.572a.3.3 0 0 1-.22.102h-1.78q-.024 0-.036.015a.05.05 0 0 0-.012.033v1.2q0 .024.012.039t.035.015H9.68q.718 0 1.235-.582l1.092-1.332 1.092 1.332q.51.582 1.229.582h1.876q.023 0 .035-.015a.05.05 0 0 0 .012-.033v-1.2a.06.06 0 0 0-.012-.039q-.012-.015-.035-.015h-1.781a.28.28 0 0 1-.214-.096l-1.318-1.608 1.312-1.596a.28.28 0 0 1 .22-.102h1.78q.024 0 .036-.015a.05.05 0 0 0 .012-.033v-1.2q0-.024-.012-.036T16.203 9z"/>
  </g>
  <defs>
    <clipPath id="a">
      <path fill="#fff" d="M0 0h24v24H0z"/>
    </clipPath>
  </defs>
</svg>
