<svg width="81" height="80" fill="none" viewBox="0 0 81 80" xmlns="http://www.w3.org/2000/svg">
  <g fill="#fff" fill-rule="evenodd" clip-path="url(#a)" clip-rule="evenodd">
    <path d="M27.981 37h5.91l2.322 3.46 3.644-4.422-1.694-2.096-.004-.004a5.3 5.3 0 0 0-3.955-1.939H27.98z"/>
    <path d="M44.882 32.223a5.3 5.3 0 0 0-1.772 1.373l-5.515 7.218-3.62 4.386H28.08v5h6.2l.031-.001a5.4 5.4 0 0 0 3.942-1.931l2.465-3.001 2.67 2.883a5.37 5.37 0 0 0 3.93 1.916h5.962v-5.233h-5.92l-3.236-3.936 3.202-3.928.013-.003h5.941V31.7h-6.22a5.3 5.3 0 0 0-2.179.524"/>
    <path d="M13.215 18.433h-5.5v-5h65.933v5h-5.467v27.333a27.467 27.467 0 0 1-27.503 27.467 27.467 27.467 0 0 1-27.463-27.467zm5 0v27.333A22.466 22.466 0 0 0 40.68 68.233v2.5l.004-2.5A22.466 22.466 0 0 0 63.18 45.766V18.433z"/>
  </g>
  <defs>
    <clipPath id="a">
      <path fill="#fff" d="M.682 0h80v80h-80z"/>
    </clipPath>
  </defs>
</svg>
