<svg width="54" height="54" viewBox="0 0 54 54" fill="none" xmlns="http://www.w3.org/2000/svg">
<path fill-rule="evenodd" clip-rule="evenodd" d="M26.8094 5.27366C29.5014 5.23987 32.1541 5.92229 34.4956 7.25103C36.8371 8.57976 38.7834 10.507 40.135 12.8354C41.4865 15.1639 42.1949 17.8097 42.1874 20.5019C42.1798 23.2589 41.4219 25.9618 39.9949 28.3207C38.7473 30.3832 37.0293 32.1148 34.9874 33.3774V36.1809C35.1373 36.2089 35.285 36.2492 35.429 36.3015C35.79 36.4325 36.1203 36.636 36.3996 36.8995C36.6789 37.163 36.9013 37.4809 37.0531 37.8336C37.2046 38.1857 37.2825 38.5652 37.2821 38.9485V44.0323H37.2376V45.8999C37.2376 46.6458 36.9413 47.3611 36.4139 47.8886C35.8864 48.416 35.1711 48.7124 34.4251 48.7124H19.5976C18.8517 48.7124 18.1363 48.416 17.6089 47.8886C17.0814 47.3611 16.7851 46.6458 16.7851 45.8999V40.7924H16.8071V38.9473C16.8071 38.2014 17.1034 37.486 17.6309 36.9586C18.0128 36.5767 18.4932 36.3159 19.0124 36.2011V33.3774C17.0252 32.1485 15.344 30.475 14.1047 28.4832C12.6825 26.1972 11.8934 23.5743 11.8184 20.8831C11.7434 18.1919 12.3851 15.5291 13.6778 13.1675C14.9705 10.8059 16.8678 8.8304 19.1752 7.44332C21.4827 6.05623 24.1173 5.30745 26.8094 5.27366ZM32.8299 10.1863C31.0087 9.15289 28.9456 8.62211 26.8517 8.64839C24.7579 8.67467 22.7087 9.25706 20.9141 10.3359C19.1194 11.4147 17.6438 12.9513 16.6383 14.7881C15.6329 16.6249 15.1337 18.6959 15.1921 20.7891C15.2504 22.8823 15.8641 24.9223 16.9703 26.7002C18.0765 28.4782 19.6355 29.9301 21.4875 30.9073L22.3874 31.3822V36.1123H25.3125V22.6572H20.8795V19.2822H33.1195V22.6572H28.6875V36.1123H31.6124V31.3822L32.5125 30.9073C34.409 29.9066 35.9973 28.4086 37.1072 26.5739C38.217 24.7391 38.8065 22.6369 38.8125 20.4926C38.8182 18.3986 38.2673 16.3408 37.2161 14.5298C36.1648 12.7188 34.6511 11.2198 32.8299 10.1863ZM33.8626 45.3374V44.1674H20.1601V45.3374H33.8626ZM20.1821 39.5098H33.9071V40.6573H20.1821V39.5098Z" fill="#FFFFFF"/>
</svg>
