<svg width="60" height="60" fill="none" viewBox="0 0 60 60" xmlns="http://www.w3.org/2000/svg">
  <path fill="#FFF" fill-rule="evenodd" d="M41.376 19.653a12.6 12.6 0 0 0-3.692-4.479l1.965-2.588a15.88 15.88 0 0 1 6.276 12.739c0 .364 0 5.22-.016 10.067-.008 2.435-.02 4.87-.039 6.735-.01.932-.02 1.726-.033 2.309-.006.29-.013.536-.02.722l-.014.257v.006c-.004.044-.014.19-.047.337l-.135.607-4.377 3.13-.007.005-6.492 4.699v-16.74l4.008-2.166v-5.598l-4.961 2.553v8.61l-1.372.216a15.5 15.5 0 0 1-4.84 0l-1.372-.217v-8.614l-4.875-2.535v5.585l4.009 2.166v16.7l-6.573-4.654-.006-.005-4.558-3.26v-.835c0-.307-.033-5.172-.065-10.048l-.002-.335c-.032-4.728-.063-9.368-.063-9.698a15.9 15.9 0 0 1 6.274-12.737l1.968 2.586a12.65 12.65 0 0 0-4.992 10.138v.009c0 .282.032 5.019.064 9.833v.182l.061 9.231 3.197 2.286.007.005 1.438 1.018v-8.478l-4.009-2.166V24.355l11.375 5.915v7.731q.542.024 1.084 0v-7.736l11.461-5.897v12.863l-4.008 2.166v8.438l1.351-.979 3.238-2.315.004-.176c.012-.562.023-1.342.032-2.27.018-1.854.03-4.281.039-6.714.016-4.864.016-9.736.016-10.061v-.01a12.6 12.6 0 0 0-1.3-5.657m1.183 25.554.001-.016zM14.075 25.324v-.004H15.7l-1.625.009z" clip-rule="evenodd"/>
  <path fill="#FFF" d="M26.807 10.632a.38.38 0 0 0-.334-.166h-2.646V8.654h2.789a2.38 2.38 0 0 1 1.811.858l.668.81-1.311 1.574zm4.766-1.215a2.38 2.38 0 0 1 1.788-.834h2.74v1.74h-2.573a.36.36 0 0 0-.31.166l-1.93 2.384 1.93 2.383a.43.43 0 0 0 .31.143h2.645v2.002h-2.788a2.38 2.38 0 0 1-1.788-.858L30 14.541l-1.573 1.93a2.38 2.38 0 0 1-1.811.858h-2.789v-1.882h2.646a.48.48 0 0 0 .334-.143l1.859-2.384z"/>
</svg>
