<svg width="80" height="80" fill="none" viewBox="0 0 80 80" xmlns="http://www.w3.org/2000/svg">
  <path fill="#fff" fill-rule="evenodd" d="M64.385 59.959a32 32 0 0 0 3.334-4.88l.027-.047.023-.048q.212-.424.323-.877.095-.186.186-.374l.01-.019A31.7 31.7 0 0 0 71.4 40a31.434 31.434 0 1 0-59.68 13.763l.008.015a30.5 30.5 0 0 0 3.995 6.092l1.786 2.041A31.4 31.4 0 0 0 40 71.4h.134a31.4 31.4 0 0 0 22.488-9.485 32 32 0 0 0 1.718-1.9l.05-.052zM45.812 14.194a26.433 26.433 0 0 0-30.805 34.48l8.582-6.98 3.155 3.878-9.47 7.702c.7 1.187 1.49 2.317 2.363 3.38l17.691-14.538a4.13 4.13 0 0 1 5.343 0l17.773 14.605a26.4 26.4 0 0 0 2.454-3.523l-9.376-7.626 3.155-3.879 8.346 6.789a26.7 26.7 0 0 0 1.377-8.48v-.005a26.43 26.43 0 0 0-20.588-25.803m11.082 46.081L40 46.393 23.167 60.225q.946.795 1.961 1.495a26.43 26.43 0 0 0 31.766-1.445" clip-rule="evenodd"/>
  <path fill="#fff" d="M34.202 25.91q.314 0 .527.245l1.624 1.987 2.137-2.606-1.097-1.34q-1.24-1.396-2.949-1.396h-4.516a.12.12 0 0 0-.092.036.1.1 0 0 0-.036.079v2.88a.11.11 0 0 0 .036.08.12.12 0 0 0 .092.035zm11.383-3.11q-1.724 0-2.963 1.382l-4.802 5.875-3.09 3.773a.7.7 0 0 1-.528.245h-4.274q-.057 0-.085.036a.12.12 0 0 0-.029.079v2.88q0 .058.029.093.028.037.085.037h4.502q1.725 0 2.963-1.397l2.622-3.197 2.62 3.197q1.226 1.397 2.95 1.397h4.502q.056 0 .085-.037a.13.13 0 0 0 .028-.079v-2.88q0-.057-.028-.093-.029-.036-.085-.036h-4.274q-.3 0-.513-.23l-3.163-3.86 3.149-3.83a.67.67 0 0 1 .527-.245h4.274q.056 0 .085-.036a.13.13 0 0 0 .028-.079v-2.88q0-.057-.028-.086-.029-.03-.085-.03z"/>
</svg>
