<svg width="54" height="54" viewBox="0 0 54 54" fill="none" xmlns="http://www.w3.org/2000/svg">
<path d="M45.2139 20.5571L51.1237 25.6754V28.482C51.1237 30.8315 49.1896 32.7361 46.8038 32.7361H45.3073V39.7191C45.3073 42.0686 43.3733 43.9732 40.9874 43.9732H34.1579V49.0704H30.7894V40.656H40.9874C41.5129 40.656 41.9389 40.2365 41.9389 39.7191V29.4189H46.8038C47.3293 29.4189 47.7552 28.9994 47.7552 28.482V27.1756L42.0206 22.2091L41.949 21.5701C41.0019 13.1213 33.7258 6.5484 24.8932 6.5484C15.4158 6.5484 7.73291 14.1143 7.73291 23.4474C7.73291 28.0802 9.62376 32.2749 12.6909 35.3293L13.1775 35.8139V49.0704H9.80904V37.1607L9.73251 37.0782C6.3997 33.4851 4.36441 28.6989 4.36441 23.4474C4.36441 12.2823 13.5555 3.23121 24.8932 3.23121C35.1981 3.23121 43.7279 10.707 45.1982 20.4528L45.2139 20.5571Z" fill="#FFFFFF"/>
<path d="M26.6303 23.5687C26.6303 24.5631 25.8117 25.3692 24.8019 25.3692C23.7921 25.3692 22.9735 24.5631 22.9735 23.5687C22.9735 22.5743 23.7921 21.7681 24.8019 21.7681C25.8117 21.7681 26.6303 22.5743 26.6303 23.5687Z" fill="#FFFFFF"/>
<path fill-rule="evenodd" clip-rule="evenodd" d="M29.9344 31.1394L28.8935 30.5476V31.7316C28.8935 33.006 27.8445 34.0391 26.5504 34.0391H23.0537C21.7596 34.0391 20.7106 33.006 20.7106 31.7316V30.5475L19.6693 31.1395C18.5486 31.7767 17.1156 31.3986 16.4685 30.2949L14.7202 27.3129C14.0732 26.2092 14.4571 24.798 15.5779 24.1608L16.619 23.5688L15.5772 22.9765C14.4565 22.3393 14.0725 20.9281 14.7196 19.8245L16.4679 16.8424C17.1149 15.7388 18.548 15.3606 19.6687 15.9978L20.7106 16.5902V15.4058C20.7106 14.1314 21.7596 13.0983 23.0537 13.0983H26.5504C27.8445 13.0983 28.8935 14.1314 28.8935 15.4058V16.5901L29.9351 15.9979C31.0558 15.3607 32.4888 15.7388 33.1359 16.8425L34.8842 19.8245C35.5312 20.9282 35.1473 22.3394 34.0265 22.9766L32.9849 23.5688L34.0259 24.1607C35.1466 24.7979 35.5306 26.2091 34.8835 27.3128L33.1352 30.2948C32.4882 31.3985 31.0551 31.7766 29.9344 31.1394ZM31.2131 29.5346L33.2539 26.0536L30.8255 24.6729C30.8928 24.3148 30.9279 23.9457 30.9279 23.5688C30.9279 23.1919 30.8928 22.8229 30.8255 22.4647L33.2545 21.0837L31.2137 17.6027L28.784 18.9842C28.2174 18.5065 27.5609 18.1287 26.8429 17.8789V15.1177H22.7612V17.8786C22.043 18.1284 21.3864 18.5062 20.8196 18.984L18.39 17.6027L16.3492 21.0836L18.7779 22.4645C18.7106 22.8227 18.6755 23.1918 18.6755 23.5688C18.6755 23.9458 18.7106 24.3149 18.778 24.6732L16.3499 26.0537L18.3907 29.5347L20.8197 28.1536C21.3865 28.6313 22.043 29.0091 22.7612 29.2589V32.0196H26.8429V29.2586C27.5609 29.0088 28.2173 28.6311 28.7838 28.1534L31.2131 29.5346Z" fill="#FFFFFF"/>
<path fill-rule="evenodd" clip-rule="evenodd" d="M30.737 24.6568L30.7254 24.7184L33.1309 26.0861L31.1801 29.4135L28.7737 28.0453L28.7253 28.0861C28.167 28.5568 27.5203 28.929 26.8129 29.1751L26.7529 29.1959V31.931H22.8512V29.1962L22.7912 29.1753C22.0836 28.9292 21.4367 28.557 20.8783 28.0863L20.8299 28.0455L18.4236 29.4136L16.4728 26.0861L18.878 24.7186L18.8665 24.6571C18.8001 24.3041 18.7655 23.9403 18.7655 23.5688C18.7655 23.1972 18.8001 22.8335 18.8664 22.4806L18.878 22.419L16.4722 21.0512L18.423 17.7237L20.8298 19.0921L20.8781 19.0513C21.4366 18.5805 22.0836 18.2083 22.7912 17.9622L22.8512 17.9413V15.2064H26.7529V17.9416L26.8129 17.9624C27.5203 18.2086 28.1671 18.5808 28.7254 19.0515L28.7738 19.0923L31.1808 17.7238L33.1316 21.0513L30.7255 22.4193L30.737 22.4809C30.8033 22.8337 30.8379 23.1973 30.8379 23.5688C30.8379 23.9402 30.8033 24.3039 30.737 24.6568ZM31.2131 29.5346L33.2539 26.0536L30.8255 24.6729C30.8928 24.3148 30.9279 23.9457 30.9279 23.5688C30.9279 23.1919 30.8928 22.8229 30.8255 22.4647L33.2545 21.0837L31.2137 17.6027L28.784 18.9842C28.2174 18.5065 27.5609 18.1287 26.8429 17.8789V15.1177H22.7612V17.8786C22.043 18.1284 21.3864 18.5062 20.8196 18.984L18.39 17.6027L16.3492 21.0836L18.7779 22.4645C18.7106 22.8227 18.6755 23.1918 18.6755 23.5688C18.6755 23.9458 18.7106 24.3149 18.778 24.6732L16.3499 26.0537L18.3907 29.5347L20.8197 28.1536C21.3865 28.6313 22.043 29.0091 22.7612 29.2589V32.0196H26.8429V29.2586C27.5609 29.0088 28.2173 28.6311 28.7838 28.1534L31.2131 29.5346ZM28.8935 31.7316V30.5476L29.9344 31.1394C31.0551 31.7766 32.4882 31.3985 33.1352 30.2948L34.8835 27.3128C35.5306 26.2091 35.1466 24.7979 34.0259 24.1607L32.9849 23.5688L34.0265 22.9766C35.1473 22.3394 35.5312 20.9282 34.8842 19.8245L33.1359 16.8425C32.4888 15.7388 31.0558 15.3607 29.9351 15.9979L28.8935 16.5901V15.4058C28.8935 14.1314 27.8445 13.0983 26.5504 13.0983H23.0537C21.7596 13.0983 20.7106 14.1314 20.7106 15.4058V16.5902L19.6687 15.9978C18.548 15.3606 17.1149 15.7388 16.4679 16.8424L14.7196 19.8245C14.0725 20.9281 14.4565 22.3393 15.5772 22.9765L16.619 23.5688L15.5779 24.1608C14.4571 24.798 14.0732 26.2092 14.7202 27.3129L16.4685 30.2949C17.1156 31.3986 18.5486 31.7767 19.6693 31.1395L20.7106 30.5475V31.7316C20.7106 33.006 21.7596 34.0391 23.0537 34.0391H26.5504C27.8445 34.0391 28.8935 33.006 28.8935 31.7316ZM29.8894 31.2162L28.9835 30.7011V31.7316C28.9835 33.0549 27.8942 34.1277 26.5504 34.1277H23.0537C21.7099 34.1277 20.6206 33.0549 20.6206 31.7316V30.701L19.7143 31.2163C18.5506 31.8779 17.0625 31.4853 16.3906 30.3392L14.6423 27.3572C13.9704 26.2111 14.3691 24.7457 15.5329 24.084L16.439 23.5688L15.5322 23.0533C14.3685 22.3916 13.9697 20.9262 14.6416 19.7801L16.3899 16.7981C17.0618 15.652 18.5499 15.2594 19.7137 15.9211L20.6206 16.4367V15.4058C20.6206 14.0824 21.7099 13.0097 23.0537 13.0097H26.5504C27.8942 13.0097 28.9835 14.0824 28.9835 15.4058V16.4365L29.8901 15.9211C31.0538 15.2595 32.5419 15.6521 33.2138 16.7982L34.9621 19.7802C35.634 20.9263 35.2353 22.3917 34.0715 23.0534L33.1649 23.5688L34.0709 24.084C35.2347 24.7456 35.6334 26.2111 34.9615 27.3571L33.2132 30.3392C32.5413 31.4852 31.0532 31.8779 29.8894 31.2162ZM24.8019 25.4578C25.8614 25.4578 26.7203 24.612 26.7203 23.5687C26.7203 22.5253 25.8614 21.6795 24.8019 21.6795C23.7424 21.6795 22.8835 22.5253 22.8835 23.5687C22.8835 24.612 23.7424 25.4578 24.8019 25.4578ZM24.8019 25.3692C25.8117 25.3692 26.6303 24.5631 26.6303 23.5687C26.6303 22.5743 25.8117 21.7681 24.8019 21.7681C23.7921 21.7681 22.9735 22.5743 22.9735 23.5687C22.9735 24.5631 23.7921 25.3692 24.8019 25.3692Z" fill="#FFFFFF"/>
</svg>
