<svg width="81" height="80" fill="none" viewBox="0 0 81 80" xmlns="http://www.w3.org/2000/svg">
  <path fill="#fff" d="M35.67 10.533a.53.53 0 0 0-.467-.233h-3.7V7.767h3.9a3.33 3.33 0 0 1 2.533 1.2l.934 1.133-1.834 2.2zm6.666-1.7a3.33 3.33 0 0 1 2.5-1.166h3.834V10.1h-3.6a.5.5 0 0 0-.434.233l-2.7 3.334 2.7 3.333a.6.6 0 0 0 .434.2h3.7V20h-3.9a3.33 3.33 0 0 1-2.5-1.2L40.136 16l-2.2 2.7a3.33 3.33 0 0 1-2.533 1.2h-3.9v-2.633h3.7a.67.67 0 0 0 .467-.2l2.6-3.334z"/>
  <path fill="#fff" fill-rule="evenodd" d="M57.638 24.082a19.4 19.4 0 0 0-5.68-6.891l3.024-3.982a24.43 24.43 0 0 1 9.654 19.598c0 .561 0 8.03-.025 15.489-.012 3.745-.03 7.492-.06 10.361-.013 1.434-.03 2.656-.05 3.552-.009.447-.02.824-.032 1.111-.006.142-.012.278-.02.395l-.002.01c-.004.067-.02.293-.07.517l-.208.935-6.733 4.815-.012.008-9.988 7.229V51.476l6.167-3.333V39.53l-7.633 3.93v13.244l-2.11.333a23.9 23.9 0 0 1-7.446 0l-2.111-.333V43.451l-7.5-3.9v8.592l6.167 3.333v25.69l-10.112-7.159-.01-.007-7.012-5.014V63.7c0-.472-.05-7.956-.1-15.458l-.003-.515c-.049-7.275-.096-14.414-.097-14.92A24.47 24.47 0 0 1 25.29 13.21l3.028 3.98a19.47 19.47 0 0 0-7.68 15.597v.013c0 .433.048 7.722.097 15.128l.002.28c.04 5.82.078 11.662.093 14.201l4.919 3.517.01.007L27.97 67.5V54.457l-6.167-3.333V31.316l17.5 9.1V52.31q.833.036 1.667 0V40.408l17.633-9.072v19.788l-6.167 3.333v12.98l2.08-1.504 4.98-3.562.007-.27c.019-.866.035-2.065.05-3.493.027-2.852.046-6.586.058-10.329.025-7.483.025-14.98.025-15.479v-.015a19.4 19.4 0 0 0-1.998-8.703m1.82 39.313.002-.025zM15.636 32.806V32.8h2.5l-2.5.013z" clip-rule="evenodd"/>
  <path fill="#fff" fill-rule="evenodd" d="m35.162 10.967 1.855 2.398 2.718-3.263-1.284-1.56-.002-.002a4 4 0 0 0-3.04-1.44h-4.573v3.867zM41.83 8.4a4 4 0 0 1 3-1.4h4.506v3.767h-4.193l-2.349 2.9 2.322 2.866h4.32v4.134h-4.579a4 4 0 0 1-3-1.44l-.009-.011-1.717-2.154-1.682 2.065a4 4 0 0 1-3.04 1.44h-4.573V16.6h4.352l2.568-3.293zm-6.627 8.867h-3.7V19.9h3.9a3.33 3.33 0 0 0 2.533-1.2l2.2-2.7 2.234 2.8a3.33 3.33 0 0 0 2.5 1.2h3.9v-2.8h-3.7a.6.6 0 0 1-.434-.2l-2.7-3.333 2.7-3.334a.5.5 0 0 1 .434-.233h3.6V7.667h-3.834a3.33 3.33 0 0 0-2.5 1.166l-4.066 4.9-2.6 3.334a.67.67 0 0 1-.467.2m.467-6.734a.53.53 0 0 0-.467-.233h-3.7V7.767h3.9a3.33 3.33 0 0 1 2.533 1.2l.934 1.133-1.834 2.2z" clip-rule="evenodd"/>
</svg>
