<svg width="60" height="60" fill="none" viewBox="0 0 60 60" xmlns="http://www.w3.org/2000/svg">
  <path fill="#FFF" d="M24.564 23.916q.294 0 .494.23l1.523 1.862 2.003-2.443-1.028-1.256Q26.394 21 24.79 21h-4.233a.12.12 0 0 0-.087.034.1.1 0 0 0-.034.074v2.7q0 .04.034.074a.12.12 0 0 0 .087.034zM35.235 21q-1.615 0-2.778 1.296l-4.5 5.508-2.899 3.536a.66.66 0 0 1-.494.23h-4.006q-.054 0-.08.034a.12.12 0 0 0-.027.074v2.7q0 .054.026.088.027.034.08.034h4.221q1.615 0 2.778-1.31l2.457-2.997 2.458 2.997q1.148 1.31 2.764 1.31h4.22q.054 0 .08-.034a.12.12 0 0 0 .028-.074v-2.7a.14.14 0 0 0-.027-.088q-.027-.033-.08-.034h-4.007a.63.63 0 0 1-.48-.216l-2.966-3.618 2.952-3.59a.63.63 0 0 1 .494-.23h4.007q.053 0 .08-.034a.12.12 0 0 0 .026-.074v-2.7q0-.054-.026-.081-.027-.027-.08-.027z"/>
  <path fill="#FFF" fill-rule="evenodd" d="M30.593 9.295a1.7 1.7 0 0 0-1.186 0l-3.81 1.428a20.8 20.8 0 0 1-9.888 1.165l-3.5-.437a1.688 1.688 0 0 0-1.896 1.674v13.094a24.19 24.19 0 0 0 13.37 21.634l5.562 2.781a1.69 1.69 0 0 0 1.51 0l5.562-2.78a24.19 24.19 0 0 0 13.37-21.635V13.125a1.687 1.687 0 0 0-1.896-1.674l-3.5.437a20.8 20.8 0 0 1-9.889-1.165zm-3.81 4.589L30 12.677l3.217 1.207a24.2 24.2 0 0 0 11.493 1.353l1.602-.2v11.182a20.81 20.81 0 0 1-11.504 18.615L30 47.239l-4.808-2.404A20.81 20.81 0 0 1 13.688 26.22V15.037l1.602.2c3.884.485 7.828.021 11.493-1.353" clip-rule="evenodd"/>
</svg>
