<svg width="54" height="54" viewBox="0 0 54 54" fill="none" xmlns="http://www.w3.org/2000/svg">
<path fill-rule="evenodd" clip-rule="evenodd" d="M7.35677 23.1469C6.79494 23.8164 6.84194 24.8005 7.46696 25.416L9.04597 26.9688C10.9755 28.8709 13.6465 29.8539 16.3705 29.668C16.9751 29.6271 17.5687 29.5289 18.1445 29.3777L13.3416 38.4521L12.1936 38.4524C11.247 38.4525 10.4792 39.2086 10.4792 40.1409V47.35C10.4792 48.2823 11.247 49.0385 12.1938 49.0385H44.892C45.8387 49.0385 46.6066 48.2823 46.6066 47.35V40.1409C46.6066 39.2086 45.8388 38.4524 44.892 38.4524H43.2639L43.3234 31.5926C43.3645 26.876 43.4076 21.9374 43.4076 21.7876C43.4076 17.3239 41.6054 13.0445 38.4035 9.88914C35.1972 6.7363 30.8544 4.96191 26.3217 4.96191H17.3744C16.2137 4.96191 15.1595 5.62811 14.6748 6.66826C14.1932 7.70506 14.3664 8.92797 15.1241 9.79338L16.8793 11.8053L7.35677 23.1469ZM19.5533 28.1542C19.5536 28.1541 19.553 28.1543 19.5533 28.1542ZM40.5038 39.1167C40.5166 37.6017 40.5427 34.6125 40.5695 31.537L40.5696 31.5276C40.5427 34.6064 40.5166 37.6002 40.5038 39.1167ZM20.4438 12.8587L10.9958 24.1147L11.4695 24.5813C12.6976 25.7926 14.3991 26.4178 16.1322 26.2989C17.8676 26.1799 19.464 25.3283 20.509 23.9639L22.2147 21.7356C22.7524 21.0378 23.7439 20.8571 24.4985 21.3256L24.5005 21.3268C25.2509 21.7961 25.5174 22.756 25.1023 23.5363L17.2097 38.4527L39.8344 38.452L39.895 31.4784C39.9358 26.7948 39.9782 21.9314 39.9782 21.7873C39.9782 18.2203 38.5396 14.7996 35.9785 12.2777C33.4172 9.75549 29.9437 8.33892 26.3219 8.33892H18.3774L20.4241 10.6829C20.9643 11.3059 20.9773 12.2236 20.4438 12.8587ZM43.1774 41.829V45.6611H13.9084V41.829H43.1774Z" fill="#FFFFFF"/>
</svg>
