<svg width="81" height="80" fill="none" viewBox="0 0 81 80" xmlns="http://www.w3.org/2000/svg">
  <path fill="#fff" stroke="#fff" stroke-width=".25" d="M28.687 70.99h.104l.019-.102.297-1.616.726-1.485.088-.18h-.442a31 31 0 0 1-16.144-15.892l-.05-.112-.113.048-3.067 1.3-.117.05.052.116A34.73 34.73 0 0 0 28.205 70.98l.023.01zm24.985-.275.048.114.115-.047A33.2 33.2 0 0 0 71.869 52.78l.01-.023v-.311l-.082-.03-3.133-1.167-.113-.042-.046.111a29.88 29.88 0 0 1-16.066 16.166l-.116.049.049.115zM13.374 28.849l.116.046.046-.116A30.08 30.08 0 0 1 29.372 12.38l.113-.05-.049-.113-1.3-3.067-.049-.116-.116.05a33.7 33.7 0 0 0-17.766 18.369l-.046.116.116.046zm55.031-.401.049.115.115-.049 3.067-1.3.114-.048-.048-.115A33.22 33.22 0 0 0 53.534 9.083l-.12-.048-.044.12-1.167 3.134-.042.113.112.046a29.64 29.64 0 0 1 16.132 16Zm-31.551 4.177a4 4 0 0 0-1.734-.383h-4.891v3.417h4.623a.64.64 0 0 1 .472.222l1.666 2.065.096.12.097-.119 2.2-2.667.065-.078-.064-.08-1.133-1.4a4 4 0 0 0-1.397-1.097Zm6.603 1.063-.001.002-4.963 6.228-3.162 3.195-.006.006-.005.007a.54.54 0 0 1-.46.217h-4.632v3.583h4.859a4.13 4.13 0 0 0 3.162-1.478l.002-.002 2.603-3.214 2.636 3.215a4.06 4.06 0 0 0 3.13 1.479h4.858v-3.217h-4.627a.57.57 0 0 1-.436-.19l-3.265-3.918 3.266-3.853.002-.003a.57.57 0 0 1 .437-.22h4.623V32.21h-4.857a4.06 4.06 0 0 0-3.164 1.479ZM27.364 56.555a21.43 21.43 0 0 0 13.59 4.87 21.26 21.26 0 0 0 15.155-6.27 21.425 21.425 0 1 0-28.745 1.4Zm5.184-32.28a17.841 17.841 0 1 1 16.86 31.448 17.841 17.841 0 0 1-16.86-31.448Z"/>
</svg>
