<svg width="24" height="24" fill="none" viewBox="0 0 24 24" xmlns="http://www.w3.org/2000/svg">
  <path fill="#fff" d="M8.32 21.26h-.13a10.38 10.38 0 0 1-5.43-5.34l.92-.39a9.34 9.34 0 0 0 4.87 4.79h.08l-.22.45zm7.53-.06-.39-.92a9 9 0 0 0 4.84-4.87l.94.35v.06a9.92 9.92 0 0 1-5.39 5.38M3.74 8.62l-.93-.37a10.07 10.07 0 0 1 5.31-5.49l.39.92a9.06 9.06 0 0 0-4.77 4.94m16.53-.1a8.93 8.93 0 0 0-4.86-4.82l.35-.94a9.93 9.93 0 0 1 5.43 5.37z"/>
  <path fill="#fff" fill-rule="evenodd" d="M12 18.39a6.39 6.39 0 1 1 4.52-1.87A6.34 6.34 0 0 1 12 18.39m0-11.78a5.39 5.39 0 1 0 .015 10.78A5.39 5.39 0 0 0 12 6.61" clip-rule="evenodd"/>
  <path fill="#fff" fill-rule="evenodd" d="m8.139 21.51-.047-.02a10.63 10.63 0 0 1-5.56-5.469l-.104-.232 1.38-.585.1.224a9.1 9.1 0 0 0 4.693 4.642h.43l-.382.779-.121.66zm.27-.74.22-.45h-.08l-.163-.072A9.34 9.34 0 0 1 3.68 15.53l-.92.39q.05.114.104.227a10.38 10.38 0 0 0 5.21 5.063l.019.008.097.042h.13zm6.723-.624.231-.097a8.75 8.75 0 0 0 4.706-4.734l.092-.224 1.329.495v.283l-.02.046a10.17 10.17 0 0 1-5.525 5.516l-.229.094zM2.485 8.39l.093-.233a10.32 10.32 0 0 1 5.441-5.626l.232-.102.585 1.38-.226.1a8.8 8.8 0 0 0-4.638 4.803l-.093.232zm17.651.458-.097-.232a8.68 8.68 0 0 0-4.724-4.685l-.224-.091.524-1.409.239.097a10.18 10.18 0 0 1 5.566 5.505l.096.23zm1.104 6.972a9.92 9.92 0 0 1-5.39 5.38l-.39-.92q.03-.014.063-.027A9 9 0 0 0 20.3 15.41l.94.35zM8.51 3.68a9.06 9.06 0 0 0-4.77 4.94l-.93-.37q.046-.117.095-.231a10.07 10.07 0 0 1 5.215-5.26zm11.76 4.84.92-.39-.1-.23a9.93 9.93 0 0 0-5.33-5.14l-.35.94a8.93 8.93 0 0 1 4.86 4.82M12 18.64a6.64 6.64 0 1 1 4.697-1.944 6.6 6.6 0 0 1-4.698 1.944m0-.25a6.39 6.39 0 1 1 4.52-1.87A6.34 6.34 0 0 1 12 18.39m0-11.53a5.14 5.14 0 1 0 .014 10.28A5.14 5.14 0 0 0 12 6.86m-2.54.39a5.39 5.39 0 1 1 5.094 9.5 5.39 5.39 0 0 1-5.094-9.5" clip-rule="evenodd"/>
  <path fill="#fff" d="M10.263 10.682a.2.2 0 0 1 .077.058l.5.62.66-.8-.34-.42a1.16 1.16 0 0 0-.91-.43H8.82v.95h1.35a.2.2 0 0 1 .093.022m2.928-.871a1.2 1.2 0 0 0-.411.32L11.29 12l-.95.96a.2.2 0 0 1-.17.08H8.82v1h1.42a1.2 1.2 0 0 0 .92-.43l.81-1 .82 1a1.18 1.18 0 0 0 .91.43h1.42v-.89h-1.35a.21.21 0 0 1-.16-.07l-1-1.2 1-1.18a.21.21 0 0 1 .16-.08h1.35V9.7H13.7a1.2 1.2 0 0 0-.509.11"/>
</svg>
