<svg width="54" height="54" viewBox="0 0 54 54" fill="none" xmlns="http://www.w3.org/2000/svg">
<path fill-rule="evenodd" clip-rule="evenodd" d="M4.3164 11.0951C3.20911 9.55319 3.39097 7.44991 4.74703 6.1145L5.87329 5.00539C7.22935 3.66997 9.36516 3.49089 10.931 4.58131L19.3276 10.4287C20.3416 11.1349 20.9579 12.2708 20.9903 13.4934L21.0864 17.1185C21.0995 17.6127 21.0183 18.0867 20.8594 18.5246L30.6288 28.1451C33.3604 26.5092 36.9711 26.8539 39.3322 29.1791L49.7173 39.4059C50.7687 40.4414 50.7687 42.1201 49.7173 43.1556L43.4864 49.2915C42.4349 50.327 40.7302 50.327 39.6788 49.2915L29.2938 39.0647C26.9332 36.74 26.5828 33.1854 28.2427 30.4956L18.4719 20.8736C18.0282 21.0293 17.548 21.1088 17.0475 21.0959L13.3663 21.0013C12.1248 20.9694 10.9713 20.3625 10.2542 19.3639L4.3164 11.0951ZM7.13352 8.46464C6.93979 8.65541 6.91381 8.95588 7.072 9.17616L13.0098 17.4449C13.1122 17.5876 13.277 17.6743 13.4544 17.6788L17.1355 17.7734C17.4576 17.7817 17.7209 17.5224 17.7125 17.2052L17.6164 13.5801C17.6118 13.4055 17.5238 13.2432 17.3789 13.1423L8.9823 7.29495C8.75861 7.13917 8.4535 7.16476 8.25978 7.35553L7.13352 8.46464ZM31.6803 36.7145C30.2262 35.2827 30.2262 32.9611 31.6803 31.5292C33.1343 30.0973 35.4917 30.0973 36.9458 31.5292L46.8481 41.2807L41.5826 46.4661L31.6803 36.7145Z" fill="#FFFFFF"/>
<path d="M12.6969 41.0622C13.2579 41.6147 13.2579 42.5105 12.6969 43.063C12.1358 43.6154 11.2262 43.6154 10.6652 43.063C10.1042 42.5105 10.1042 41.6147 10.6652 41.0622C11.2262 40.5098 12.1358 40.5098 12.6969 41.0622Z" fill="#FFFFFF"/>
<path fill-rule="evenodd" clip-rule="evenodd" d="M37.1634 7.74059C38.3953 7.93801 39.6004 8.33572 40.7248 8.93372L36.4083 13.1845C36.3064 13.2848 36.2475 13.4198 36.2438 13.5617L36.1417 17.4131C36.1333 17.7303 36.3966 17.9896 36.7187 17.9813L40.6297 17.8808C40.7737 17.8771 40.9108 17.8191 41.0127 17.7187L45.3292 13.468C45.9365 14.5752 46.3404 15.762 46.5409 16.9751L43.3992 20.0689C42.6859 20.7713 41.7261 21.1773 40.7177 21.2033L36.8067 21.3038C34.5522 21.3617 32.709 19.5466 32.7678 17.3264L32.8699 13.475C32.8962 12.482 33.3086 11.5367 34.0218 10.8343L37.1634 7.74059Z" fill="#FFFFFF"/>
<path d="M41.2011 8.46471C42.221 7.46034 42.0266 5.77385 40.6825 5.25864C40.4394 5.16547 40.1943 5.07888 39.9475 4.99889L37.1634 7.74059C38.3953 7.93801 39.6004 8.33572 40.7248 8.93372L41.2011 8.46471Z" fill="#FFFFFF"/>
<path d="M45.3292 13.468C45.9365 14.5752 46.3404 15.762 46.5409 16.9751L49.3249 14.2334C49.2437 13.9903 49.1558 13.749 49.0611 13.5096C48.538 12.1859 46.8254 11.9946 45.8055 12.9989L45.3292 13.468Z" fill="#FFFFFF"/>
<path d="M39.9475 4.99889C34.8324 3.34111 28.9778 4.51517 24.91 8.52107C24.4083 9.01509 23.9504 9.53587 23.5362 10.0787L25.9543 12.4601C26.3443 11.9006 26.7916 11.3683 27.2965 10.8712C29.9828 8.22582 33.6797 7.18227 37.1634 7.74059L39.9475 4.99889Z" fill="#FFFFFF"/>
<path d="M46.5409 16.9751C47.1079 20.4057 46.0482 24.0465 43.3618 26.6919C42.8545 27.1916 42.3111 27.6341 41.7398 28.0194L44.1583 30.4011C44.7125 29.9916 45.2442 29.5386 45.7483 29.0421C49.8162 25.0361 51.0084 19.2707 49.3249 14.2334L46.5409 16.9751Z" fill="#FFFFFF"/>
<path d="M15.6126 48.0835C12.8406 50.8133 8.3462 50.8133 5.57415 48.0835C2.80211 45.3536 2.80211 40.9277 5.57415 38.1979L18.8554 25.1189L21.2419 27.469L7.96064 40.548C6.50661 41.9799 6.50661 44.3014 7.96064 45.7333C9.41466 47.1652 11.7721 47.1652 13.2261 45.7333L24.63 34.5031C24.4217 36.0368 24.4581 36.9047 25.3488 38.4956L15.6126 48.0835Z" fill="#FFFFFF"/>
</svg>
