<svg width="60" height="60" fill="none" viewBox="0 0 60 60" xmlns="http://www.w3.org/2000/svg">
  <path fill="#FFF" d="M21.72 50.835h-.293A23.36 23.36 0 0 1 9.209 38.819l2.07-.877a21.02 21.02 0 0 0 10.958 10.777h.18l-.495 1.013zm16.942-.135-.877-2.07a20.25 20.25 0 0 0 10.89-10.958l2.114.788v.134A22.32 22.32 0 0 1 38.662 50.7M11.415 22.395l-2.093-.833A22.66 22.66 0 0 1 21.27 9.209l.877 2.07a20.4 20.4 0 0 0-10.732 11.116m37.192-.225a20.1 20.1 0 0 0-10.935-10.846l.788-2.115a22.34 22.34 0 0 1 12.217 12.083z"/>
  <path fill="#FFF" fill-rule="evenodd" d="M30 44.377a14.377 14.377 0 1 1 10.17-4.207A14.26 14.26 0 0 1 30 44.377m0-26.505a12.127 12.127 0 1 0 .032 24.254A12.127 12.127 0 0 0 30 17.872" clip-rule="evenodd"/>
  <path fill="#FFF" fill-rule="evenodd" d="m21.312 51.397-.105-.045A23.92 23.92 0 0 1 8.695 39.048l-.232-.523 3.105-1.316.225.504a20.45 20.45 0 0 0 10.56 10.444h.965l-.857 1.753-.273 1.487zm.61-1.665.495-1.012h-.18l-.368-.161a21.02 21.02 0 0 1-10.59-10.617l-2.07.878q.115.257.235.511a23.36 23.36 0 0 0 11.724 11.392l.041.018.218.094h.292zm15.124-1.403.52-.218a19.7 19.7 0 0 0 10.588-10.653l.207-.503 2.99 1.114v.637l-.042.104a22.88 22.88 0 0 1-12.433 12.41l-.515.212zM8.591 21.877l.208-.523a23.22 23.22 0 0 1 12.245-12.66l.521-.228 1.316 3.105-.508.223a19.82 19.82 0 0 0-10.436 10.809l-.208.522zm39.715 1.031-.218-.521a19.53 19.53 0 0 0-10.629-10.542l-.505-.206 1.18-3.168.537.217a22.9 22.9 0 0 1 12.525 12.387l.216.517zm2.483 15.687A22.32 22.32 0 0 1 38.662 50.7l-.878-2.07.143-.06a20.25 20.25 0 0 0 10.747-10.898l2.115.788zM22.147 11.28a20.4 20.4 0 0 0-10.733 11.115l-2.092-.833A22.66 22.66 0 0 1 21.269 9.21zm26.46 10.89 2.07-.878a22 22 0 0 0-.224-.516A22.34 22.34 0 0 0 38.46 9.21l-.787 2.115A20.1 20.1 0 0 1 48.607 22.17M29.998 44.94a14.94 14.94 0 1 1 10.57-4.373 14.83 14.83 0 0 1-10.57 4.373m.001-.563a14.377 14.377 0 1 1 10.17-4.207A14.27 14.27 0 0 1 30 44.377m0-25.942a11.565 11.565 0 1 0 .032 23.13A11.565 11.565 0 0 0 30 18.435m-5.714.876a12.127 12.127 0 1 1 11.46 21.377 12.127 12.127 0 0 1-11.46-21.377" clip-rule="evenodd"/>
  <path fill="#FFF" d="M26.093 27.034a.5.5 0 0 1 .172.131l1.125 1.395 1.485-1.8-.765-.945a2.61 2.61 0 0 0-2.048-.967h-3.217v2.137h3.037a.5.5 0 0 1 .21.05m6.588-1.96a2.7 2.7 0 0 0-.925.718L28.402 30l-2.137 2.16a.45.45 0 0 1-.383.18h-3.037v2.25h3.195a2.7 2.7 0 0 0 2.07-.967l1.822-2.25 1.845 2.25a2.66 2.66 0 0 0 2.048.967h3.195v-2.002h-3.038a.47.47 0 0 1-.36-.158l-2.25-2.7 2.25-2.655a.47.47 0 0 1 .36-.18h3.038v-2.07h-3.195a2.7 2.7 0 0 0-1.145.25"/>
</svg>
