<svg width="54" height="54" viewBox="0 0 54 54" fill="none" xmlns="http://www.w3.org/2000/svg">
<path fill-rule="evenodd" clip-rule="evenodd" d="M47.1407 44.8193H6.87098C5.51956 44.8193 4.41504 43.7316 4.41504 42.4007V20.5059C4.41504 20.0964 4.75289 19.7637 5.16871 19.7637C5.58454 19.7637 5.92239 20.0964 5.92239 20.5059V42.4007C5.92239 42.9126 6.35121 43.3349 6.87098 43.3349H47.1277C47.6475 43.3349 48.0763 42.9126 48.0763 42.4007V20.5059C48.0763 20.0964 48.4141 19.7637 48.8299 19.7637C49.2458 19.7637 49.5836 20.0964 49.5836 20.5059V42.4007C49.5836 43.7316 48.4921 44.8193 47.1407 44.8193Z" fill="#FFFFFF"/>
<path fill-rule="evenodd" clip-rule="evenodd" d="M3.48145 20.506C3.48145 19.5886 4.23735 18.8442 5.16887 18.8442C6.10039 18.8442 6.8563 19.5886 6.8563 20.506V42.4008L6.85656 42.402C6.85717 42.4034 6.85886 42.4064 6.86219 42.4096C6.86551 42.4129 6.86853 42.4146 6.86998 42.4152L6.87114 42.4154H47.1278L47.129 42.4152C47.1304 42.4146 47.1335 42.4129 47.1368 42.4096C47.1401 42.4064 47.1418 42.4034 47.1424 42.402L47.1427 42.4008V20.506C47.1427 19.5886 47.8986 18.8442 48.8301 18.8442C49.7616 18.8442 50.5175 19.5886 50.5175 20.506V42.4008C50.5175 44.2332 49.0144 45.7389 47.1408 45.7389H6.87114C5.00403 45.7389 3.48145 44.2395 3.48145 42.4008V20.506Z" fill="#FFFFFF"/>
<path fill-rule="evenodd" clip-rule="evenodd" d="M48.8429 24.4213H30.053C29.6372 24.4213 29.2993 24.0886 29.2993 23.6791C29.2993 23.2696 29.6372 22.9369 30.053 22.9369H48.0893V14.9263C48.0893 12.5717 46.1401 10.6523 43.7491 10.6523H10.2625C7.87155 10.6523 5.92239 12.5717 5.92239 14.9263V22.9369H23.9586C24.3745 22.9369 24.7123 23.2696 24.7123 23.6791C24.7123 24.0886 24.3745 24.4213 23.9586 24.4213H5.16871C4.75289 24.4213 4.41504 24.0886 4.41504 23.6791V14.9263C4.41504 11.7528 7.02692 9.18066 10.2495 9.18066H43.7491C46.9717 9.18066 49.5836 11.7528 49.5836 14.9263V23.6919C49.5836 24.0886 49.2588 24.4213 48.8429 24.4213Z" fill="#FFFFFF"/>
<path fill-rule="evenodd" clip-rule="evenodd" d="M3.48145 14.9264C3.48145 11.245 6.51138 8.26123 10.2497 8.26123H43.7493C47.4876 8.26123 50.5175 11.245 50.5175 14.9264V23.692C50.5175 24.586 49.7853 25.341 48.8431 25.341H30.0532C29.1217 25.341 28.3657 24.5966 28.3657 23.6792C28.3657 22.7619 29.1217 22.0175 30.0532 22.0175H47.1557V14.9264C47.1557 13.0797 45.6246 11.5719 43.7493 11.5719H10.2627C8.38741 11.5719 6.8563 13.0797 6.8563 14.9264V22.0175H23.9588C24.8903 22.0175 25.6462 22.7619 25.6462 23.6792C25.6462 24.5966 24.8903 25.341 23.9588 25.341H5.16887C4.23735 25.341 3.48145 24.5966 3.48145 23.6792V14.9264Z" fill="#FFFFFF"/>
<path fill-rule="evenodd" clip-rule="evenodd" d="M27.0131 27.5823C24.921 27.5823 23.2188 25.9059 23.2188 23.8457V17.2427C23.2188 16.8332 23.5566 16.5005 23.9724 16.5005H30.0668C30.4826 16.5005 30.8205 16.8332 30.8205 17.2427V23.8457C30.8075 25.9059 29.1052 27.5823 27.0131 27.5823ZM24.7131 17.9849V23.8457C24.7131 25.0998 25.7397 26.1107 27.0131 26.1107C28.2866 26.1107 29.3131 25.0998 29.3131 23.8457V17.9849H24.7131Z" fill="#FFFFFF"/>
<path fill-rule="evenodd" clip-rule="evenodd" d="M22.2852 17.2428C22.2852 16.3255 23.0411 15.5811 23.9726 15.5811H30.067C30.9985 15.5811 31.7544 16.3254 31.7544 17.2428V23.8515C31.7382 26.414 29.6222 28.5019 27.0133 28.5019C24.4055 28.5019 22.2852 26.4139 22.2852 23.8458V17.2428ZM25.647 18.9045V23.8458C25.647 24.592 26.2555 25.1912 27.0133 25.1912C27.771 25.1912 28.3795 24.592 28.3795 23.8458V18.9045H25.647Z" fill="#FFFFFF"/>
<path fill-rule="evenodd" clip-rule="evenodd" d="M41.9287 17.9847H12.0935C11.6777 17.9847 11.3398 17.652 11.3398 17.2425V9.92286C11.3398 9.51337 11.6777 9.18066 12.0935 9.18066C12.5093 9.18066 12.8472 9.51337 12.8472 9.92286V16.5131H41.188V9.92286C41.188 9.51337 41.5259 9.18066 41.9417 9.18066C42.3575 9.18066 42.6954 9.51337 42.6954 9.92286V17.2425C42.6694 17.652 42.3315 17.9847 41.9287 17.9847Z" fill="#FFFFFF"/>
<path fill-rule="evenodd" clip-rule="evenodd" d="M10.4062 9.92296C10.4062 9.00562 11.1622 8.26123 12.0937 8.26123C13.0252 8.26123 13.7811 9.00562 13.7811 9.92296V15.5936H40.2544V9.92296C40.2544 9.00562 41.0103 8.26123 41.9419 8.26123C42.8734 8.26123 43.6293 9.00563 43.6293 9.92296V17.2713L43.6275 17.2999C43.5734 18.151 42.8674 18.9043 41.9289 18.9043H12.0937C11.1622 18.9043 10.4062 18.1599 10.4062 17.2426V9.92296Z" fill="#FFFFFF"/>
</svg>
