<svg width="29" height="22" fill="none" viewBox="0 0 29 22" xmlns="http://www.w3.org/2000/svg">
  <path fill="#2ED9FF" d="M6.812 5.59a.92.92 0 0 0-.728-.345H.177a.17.17 0 0 1-.128-.05A.16.16 0 0 1 0 5.082V1.03Q0 .97.05.92A.17.17 0 0 1 .177.87h6.242q2.362 0 4.075 1.965l1.517 1.884-2.954 3.668zm10.909-2.776Q19.434.868 21.816.868h6.222q.08 0 .118.04.04.041.04.122v4.053q0 .06-.04.111-.039.051-.118.051h-5.907a.92.92 0 0 0-.728.345l-4.352 5.39 4.371 5.43a.93.93 0 0 0 .71.325h5.906q.08 0 .118.05.04.052.04.132v4.053q0 .06-.04.111-.039.051-.118.051h-6.222q-2.382 0-4.076-1.966l-3.622-4.498-3.624 4.499Q8.781 21.132 6.4 21.132H.177q-.078 0-.118-.05a.2.2 0 0 1-.04-.133v-4.052q0-.06.04-.112.04-.05.118-.05h5.907q.413 0 .728-.345l4.273-5.31z"/>
</svg>
