<svg width="81" height="80" viewBox="0 0 81 80" fill="none" xmlns="http://www.w3.org/2000/svg">
    <path fill-rule="evenodd" clip-rule="evenodd"
        d="M64.794 59.9587C66.0536 58.4406 67.1702 56.807 68.1286 55.0785L68.1546 55.0316L68.1786 54.9836C68.3192 54.7023 68.4271 54.408 68.5015 54.1065C68.5643 53.9824 68.6264 53.858 68.6876 53.733L68.6969 53.7139C70.7491 49.4336 71.8128 44.7467 71.8093 39.9999C71.8134 35.27 70.75 30.6001 68.6985 26.3383C66.6466 22.0758 63.659 18.3315 59.9586 15.3843C56.2581 12.4372 51.9402 10.3633 47.3267 9.31719C42.7131 8.27112 37.923 8.27987 33.3133 9.34278C28.7036 10.4057 24.3933 12.4954 20.7036 15.456C17.0139 18.4166 14.0401 22.1719 12.0038 26.4418C9.96747 30.7118 8.92118 35.3863 8.94293 40.1169C8.96467 44.8475 10.0539 49.5122 12.1294 53.7632L12.1367 53.7781C13.222 55.964 14.5641 58.0086 16.1325 59.8697L16.0198 59.9623L17.9184 61.911C20.844 64.9139 24.3413 67.3005 28.204 68.93C32.0668 70.5596 36.2167 71.3992 40.4091 71.3992C40.4523 71.3992 40.4955 71.3991 40.5387 71.3989C40.5398 71.3989 40.541 71.3989 40.5422 71.3989C44.7346 71.3989 48.8846 70.5593 52.7473 68.9298C56.6088 67.3007 60.105 64.9152 63.03 61.9137C63.6285 61.3033 64.2015 60.6695 64.7479 60.0141L64.7984 59.9623L64.794 59.9587ZM46.221 14.1934C42.3413 13.3137 38.3132 13.3211 34.4367 14.2149C30.5603 15.1088 26.9356 16.866 23.8328 19.3557C20.7301 21.8454 18.2293 25.0034 16.5169 28.5941C14.8044 32.1848 13.9246 36.1158 13.9429 40.0939C13.9563 43.0228 14.4564 45.9216 15.4158 48.6737L23.9981 41.6934L27.153 45.5723L17.6835 53.2742C18.3833 54.4605 19.1733 55.5904 20.0459 56.6539L37.7376 42.1161C38.4838 41.484 39.4304 41.1367 40.4091 41.1367C41.3878 41.1367 42.3344 41.484 43.0806 42.1161L60.8534 56.7205C61.7638 55.6166 62.5847 54.4387 63.3069 53.1977L53.9314 45.5723L57.0864 41.6934L65.4322 48.4818C66.3442 45.755 66.8116 42.8915 66.8093 40.0017L69.3093 39.9997L66.8093 39.9973C66.813 36.0192 65.9188 32.0915 64.1933 28.507C62.4678 24.9226 59.9555 21.7738 56.8436 19.2955C53.7318 16.8171 50.1007 15.0731 46.221 14.1934ZM57.3033 60.2749L40.4091 46.3924L23.5756 60.225C24.2062 60.7539 24.8608 61.2528 25.5372 61.72C27.5796 63.117 29.8152 64.2252 32.1814 65.0056C36.1997 66.3309 40.4774 66.6721 44.6549 66.0007C48.8325 65.3293 52.7879 63.6649 56.1885 61.1473C56.5684 60.8661 56.9401 60.5752 57.3033 60.2749Z"
        fill="white" />
    <path
        d="M43.0331 25.5024L43.0336 25.5017C43.423 25.05 43.9054 24.6879 44.4479 24.4403C44.9903 24.1927 45.5799 24.0653 46.1762 24.067M43.0331 25.5024L46.1761 24.167M43.0331 25.5024L38.2334 31.1687L38.3094 31.2337M43.0331 25.5024L38.2331 31.169M46.1762 24.067C46.1763 24.067 46.1763 24.067 46.1763 24.067L46.1761 24.167M46.1762 24.067H46.1761V24.167M46.1762 24.067H50.9094H51.0094V24.167V27.1337V27.2337H50.9094H46.4094H46.4055L46.4055 27.2336C46.3198 27.2302 46.2345 27.2463 46.156 27.2807C46.0776 27.315 46.008 27.3666 45.9524 27.4317L45.9526 27.4313L45.8761 27.367L45.9521 27.4319L42.6731 31.3339M46.1761 24.167H50.8094H50.9094V24.267V27.0337V27.1337H50.8094H46.4094C46.3086 27.1297 46.2083 27.1486 46.1159 27.1891C46.0235 27.2295 45.9415 27.2903 45.8761 27.367L42.5427 31.3337M42.6731 31.3339L42.6195 31.2697L42.5427 31.3337M42.6731 31.3339L42.6193 31.398L42.5427 31.3337M42.6731 31.3339L45.9489 35.2649M42.5427 31.3337L45.8761 35.3337M45.8761 35.3337L45.9446 35.2608C45.946 35.2622 45.9474 35.2635 45.9489 35.2649M45.8761 35.3337C46.0216 35.4706 46.21 35.5531 46.4094 35.567M45.8761 35.3337L45.9529 35.2697L45.9489 35.2649M45.9489 35.2649C46.0762 35.3828 46.2398 35.4541 46.413 35.467M46.4094 35.567V35.467H46.413M46.4094 35.567H50.8094H50.9094V35.667V38.4337V38.5337H50.8094H46.1761M46.4094 35.567L46.4164 35.4673C46.4153 35.4672 46.4141 35.4671 46.413 35.467M46.413 35.467H50.9094H51.0094V35.567V38.5337V38.6337H50.9094H46.1761L46.1761 38.5337M46.1761 38.5337V38.6337M46.1761 38.5337C45.5926 38.5339 45.0166 38.4021 44.4912 38.1481C43.9659 37.8941 43.5049 37.5245 43.1427 37.067M46.1761 38.6337L43.1094 25.567L38.3094 31.2337M46.1761 38.6337C45.5775 38.6339 44.9866 38.4987 44.4477 38.2381C43.9091 37.9777 43.4363 37.5988 43.0649 37.1298M46.1761 38.6337L37.7873 37.1297M43.1427 37.067L40.4741 33.8126L40.4099 33.892M43.1427 37.067L43.0643 37.1291C43.0645 37.1293 43.0647 37.1295 43.0649 37.1298M43.1427 37.067L43.0654 37.1304L43.0649 37.1298M40.4099 33.892L40.3451 33.813L37.7094 37.067M40.4099 33.892L37.7873 37.1297M40.4099 33.892L43.0649 37.1298M37.7094 37.067C37.3405 37.5253 36.8734 37.8949 36.3427 38.1487C35.8119 38.4026 35.231 38.5341 34.6427 38.5337M37.7094 37.067L37.7873 37.1297M37.7094 37.067L37.7873 37.1297M34.6427 38.5337H30.1094H30.0094V38.4337V35.5003V35.4003H30.1094H34.4094M34.6427 38.5337V38.6337H34.6427M34.6427 38.5337L34.6427 38.6337M34.4094 35.4003C34.5173 35.3983 34.6235 35.3735 34.7212 35.3275C34.8188 35.2816 34.9057 35.2155 34.9761 35.1337M34.4094 35.4003V35.3003H34.4084M34.4094 35.4003L34.4075 35.3004C34.4078 35.3004 34.4081 35.3003 34.4084 35.3003M34.9761 35.1337L38.3094 31.2337M34.9761 35.1337L34.9002 35.0685L38.2331 31.169M34.9761 35.1337L34.9 35.0687L34.9001 35.0686C34.839 35.1397 34.7635 35.1971 34.6786 35.237C34.594 35.2769 34.5019 35.2984 34.4084 35.3003M38.3094 31.2337L38.2331 31.169M38.2331 31.169L37.7871 37.1299C37.4088 37.5997 36.93 37.9787 36.3858 38.239C35.8416 38.4992 35.2459 38.6341 34.6427 38.6337M34.4084 35.3003H30.0094H29.9094V35.4003V38.5337V38.6337H30.0094H34.6427M34.4094 27.467V27.4671L34.4134 27.4669C34.5047 27.4632 34.5957 27.4793 34.6802 27.5141C34.7633 27.5483 34.8381 27.5998 34.8998 27.6652L36.5635 29.828L36.6405 29.9281L36.7202 29.8302L38.9202 27.1302L38.9722 27.0665L38.9197 27.0032L37.7871 25.6374C37.787 25.6373 37.7869 25.6371 37.7867 25.637C37.4119 25.1741 36.9375 24.8016 36.399 24.5471C35.8604 24.2926 35.2714 24.1627 34.6757 24.167H29.9094H29.8094V24.267V27.367V27.467H29.9094H34.4094Z"
        fill="white" stroke="white" stroke-width="0.2" />
</svg>