<svg width="24" height="24" fill="none" viewBox="0 0 24 24" xmlns="http://www.w3.org/2000/svg">
  <path fill="#FC8738" fill-rule="evenodd" d="m12.516 10.455-.517-.489-.515.49a9.32 9.32 0 0 0-2.882 6.134l-.002.025v.025c0 1.038.35 1.918.992 2.538.636.615 1.497.912 2.408.912.903 0 1.764-.281 2.406-.885.65-.61 1.004-1.484 1.004-2.525v-.024l-.001-.024a9.32 9.32 0 0 0-2.893-6.177m-2.416 6.21a7.82 7.82 0 0 1 1.9-4.583 7.82 7.82 0 0 1 1.91 4.62c-.005.677-.23 1.126-.531 1.41-.313.294-.782.478-1.379.478-.588 0-1.053-.189-1.366-.49-.305-.295-.529-.757-.534-1.436" clip-rule="evenodd"/>
  <path fill="#FC8738" fill-rule="evenodd" d="M12 2.148 8.883 6.823 6.777 4.717l-.455.962c-.326.69-1.875 4.553-1.926 8.295-.025 1.874.323 3.83 1.508 5.329 1.21 1.53 3.182 2.447 6.096 2.447s4.887-.92 6.097-2.455c1.184-1.502 1.532-3.463 1.507-5.34-.051-3.747-1.598-7.61-1.931-8.286l-.462-.94-2.094 2.094zm0 2.704 2.883 4.325 1.85-1.85c.528 1.435 1.336 4.095 1.37 6.648.024 1.717-.304 3.275-1.184 4.391-.855 1.084-2.334 1.884-4.919 1.884-2.586 0-4.066-.798-4.92-1.878-.879-1.112-1.207-2.664-1.184-4.378.035-2.552.844-5.215 1.375-6.662l1.846 1.845z" clip-rule="evenodd"/>
</svg>
