<svg width="16" height="16" fill="none" viewBox="0 0 16 16" xmlns="http://www.w3.org/2000/svg">
  <path fill="#00D1FF" d="M16 8A8 8 0 1 1 0 8a8 8 0 0 1 16 0"/>
  <path fill="#0B0B22" d="M5.39 6.083a.33.33 0 0 0-.26-.12H3.027a.06.06 0 0 1-.045-.017.05.05 0 0 1-.018-.039V4.501q0-.021.018-.039a.06.06 0 0 1 .045-.018H5.25q.843 0 1.453.683l.54.654-1.052 1.273zm3.888-.963q.61-.676 1.46-.676h2.216q.029 0 .042.014t.014.043v1.406a.06.06 0 0 1-.014.039q-.013.018-.042.018H10.85q-.155 0-.26.12l-1.55 1.87 1.557 1.885q.105.112.253.112h2.104q.029 0 .042.018t.014.046v1.406a.06.06 0 0 1-.014.039q-.013.018-.042.017h-2.217q-.849 0-1.452-.682L7.994 9.234l-1.291 1.561q-.61.682-1.46.682H3.026q-.029 0-.042-.017a.07.07 0 0 1-.014-.046v-1.407a.06.06 0 0 1 .014-.038q.014-.018.042-.018h2.105q.147 0 .26-.12L6.913 7.99z"/>
</svg>
