<svg width="24" height="24" fill="none" viewBox="0 0 24 24" xmlns="http://www.w3.org/2000/svg">
  <path fill="#012546" d="M24 12c0 6.627-5.373 12-12 12S0 18.627 0 12 5.373 0 12 0s12 5.373 12 12"/>
  <path fill="#00D1FF" d="M8.086 9.125a.5.5 0 0 0-.39-.18H4.54a.1.1 0 0 1-.068-.026.08.08 0 0 1-.027-.058v-2.11a.08.08 0 0 1 .027-.058.1.1 0 0 1 .068-.026h3.336q1.263 0 2.179 1.023l.81.981-1.578 1.91zm5.83-1.445q.916-1.013 2.19-1.013h3.325q.043 0 .064.02.02.022.02.064v2.11q0 .031-.02.058-.022.027-.064.026h-3.157a.5.5 0 0 0-.39.18L13.56 11.93l2.336 2.827a.5.5 0 0 0 .38.17h3.156q.043 0 .064.025.02.027.02.069v2.11a.1.1 0 0 1-.02.058q-.022.026-.064.026h-3.325q-1.275 0-2.179-1.023l-1.936-2.342-1.937 2.342q-.915 1.023-2.19 1.023H4.54q-.043 0-.063-.026a.1.1 0 0 1-.021-.069v-2.11a.1.1 0 0 1 .02-.058q.022-.026.064-.026h3.157a.52.52 0 0 0 .39-.18l2.284-2.764z"/>
</svg>
