<svg width="43" height="30" fill="none" viewBox="0 0 43 30" xmlns="http://www.w3.org/2000/svg">
  <path fill="#00D1FF" d="M10.193 6.99q-.442-.51-1.09-.51H.264a.25.25 0 0 1-.191-.075A.23.23 0 0 1 0 6.24v-6Q0 .15.074.075A.25.25 0 0 1 .264 0h9.34q3.534 0 6.098 2.91L17.97 5.7l-4.419 5.43zm16.32-4.11Q29.078 0 32.642 0h9.31q.117 0 .176.06t.059.18v6q0 .09-.059.165-.06.075-.177.075h-8.837q-.648 0-1.09.51l-6.51 7.98 6.539 8.04q.442.48 1.06.48h8.838q.118 0 .177.075a.3.3 0 0 1 .059.195v6q0 .09-.059.165-.06.075-.177.075h-9.309q-3.565 0-6.098-2.91l-5.42-6.66-5.421 6.66Q13.139 30 9.574 30H.264q-.117 0-.176-.075a.3.3 0 0 1-.059-.195v-6q0-.09.059-.165t.177-.076h8.837q.62 0 1.09-.51l6.393-7.86z"/>
</svg>
