<svg width="263" height="30" fill="none" viewBox="0 0 263 30" xmlns="http://www.w3.org/2000/svg">
  <path fill="#00D1FF" d="M7.007 9.805a.95.95 0 0 0-.75-.35H.182a.18.18 0 0 1-.131-.052A.16.16 0 0 1 0 9.29V5.165q0-.062.05-.113A.18.18 0 0 1 .183 5h6.42q2.43 0 4.192 2l1.56 1.918-3.038 3.733zm11.22-2.825Q19.987 5 22.438 5h6.4q.08 0 .12.041.04.042.041.124V9.29a.18.18 0 0 1-.04.113q-.041.051-.122.051h-6.075a.95.95 0 0 0-.75.351l-4.475 5.486 4.496 5.527q.303.33.729.33h6.075q.08 0 .122.052.04.052.04.134v4.124a.18.18 0 0 1-.04.113q-.041.052-.122.052h-6.4q-2.45 0-4.191-2l-3.727-4.579-3.726 4.579q-1.763 2-4.212 2h-6.4q-.081 0-.121-.052a.2.2 0 0 1-.04-.134v-4.125q-.001-.06.04-.113.04-.051.121-.052h6.075q.425 0 .75-.35l4.394-5.403z"/>
  <path fill="#fff" d="M43.48 22.86a3.2 3.2 0 0 1-1.22-.24q-.56-.26-.98-.68a3.7 3.7 0 0 1-.68-1 3 3 0 0 1-.24-1.18V8.86h2.5v10.6q0 .52.36.9.38.38.9.38h5.2q.52 0 .9-.38a1.23 1.23 0 0 0 .38-.9V8.86h2.5v10.9q0 .62-.26 1.18-.24.56-.66 1-.42.42-1 .68-.56.24-1.2.24zM58.09 8.14v14.72h-2.32V8.14zm9.18 14.72h-2.78q-.58 0-1.1-.2a2.87 2.87 0 0 1-1.48-1.48q-.22-.5-.22-1.1v-6.04h-1.88v-2.02h1.88V9.64h2.32v2.38h3.28v2.02h-3.28v5.7q0 .5.3.82.3.3.8.3h2.16zm4.217 0h-2.3V12.02h2.3v1.36l1.68-1.36h3.42v2.02h-4.4a.72.72 0 0 0-.5.2q-.2.18-.2.48zm13.153-2a.66.66 0 0 0 .48-.2q.22-.2.22-.5v-6.12h-4.32q-.48 0-.82.34-.34.32-.34.8v4.52q0 .5.34.84.34.32.82.32zm-4.24 2q-.6 0-1.12-.22a3.5 3.5 0 0 1-.9-.62 3.1 3.1 0 0 1-.6-.9 2.8 2.8 0 0 1-.22-1.1v-5.16q0-.6.22-1.1a3.1 3.1 0 0 1 .62-.9 2.9 2.9 0 0 1 .9-.62q.52-.22 1.1-.22h7.24v10.84h-2.3v-1.48l-1.74 1.48zm12.981-8.88q-.52 0-.82.3-.28.3-.28.78v.3q0 .48.3.8.32.3.8.3h4q.58 0 1.08.22.52.2.9.58.381.38.6.88.22.5.22 1.08v.88q0 .58-.22 1.08a2.8 2.8 0 0 1-1.5 1.48q-.5.2-1.08.2h-4.52q-.58 0-1.1-.22a3.1 3.1 0 0 1-.9-.6 3.2 3.2 0 0 1-.62-.88 2.8 2.8 0 0 1-.22-1.1v-.36h2.26v.06q0 .5.32.82.34.32.84.32h3.36q.52 0 .8-.3.3-.3.3-.78v-.28q0-.48-.32-.78t-.78-.3h-4q-.58 0-1.1-.2a3 3 0 0 1-.88-.58 2.9 2.9 0 0 1-.6-.88 3 3 0 0 1-.2-1.1v-.92q0-.58.2-1.08.22-.5.6-.88t.88-.58q.52-.22 1.1-.22h4.32q.58 0 1.08.22.52.22.9.6.4.38.62.9.24.5.24 1.1v.36h-2.26v-.08q0-.5-.34-.82-.32-.32-.82-.32zm16.565-1.96q.579 0 1.08.22.519.22.9.62.4.38.62.9.24.5.24 1.1v5.16q0 .58-.22 1.1a3.1 3.1 0 0 1-.6.9 3.1 3.1 0 0 1-.9.62q-.52.22-1.12.22h-4.8a2.7 2.7 0 0 1-1.08-.22 3.1 3.1 0 0 1-.9-.6 3.5 3.5 0 0 1-.62-.9 2.8 2.8 0 0 1-.22-1.12v-5.16q0-.56.22-1.08.219-.52.6-.9.38-.4.9-.62a2.6 2.6 0 0 1 1.1-.24zm.52 3.16q0-.48-.34-.8a1.05 1.05 0 0 0-.8-.34h-3.54q-.48 0-.82.34-.34.32-.34.8v4.52q0 .5.34.84.34.32.82.32h3.54q.48 0 .8-.32.34-.34.34-.84zm11.878 5.68a.66.66 0 0 0 .48-.2.65.65 0 0 0 .22-.5v-8.14h2.32v10.84h-2.32V21.4l-1.68 1.46h-3.42a2.8 2.8 0 0 1-1.1-.22 2.9 2.9 0 0 1-.88-.6 3.5 3.5 0 0 1-.62-.9 2.8 2.8 0 0 1-.22-1.12v-8h2.3v7.68q0 .5.32.84.339.32.84.32zm7.912 2h-2.3V12.02h2.3v1.42l1.68-1.42h3.5q.58 0 1.08.22.52.22.9.62.4.38.62.9.24.5.24 1.1v8h-2.32v-7.68q0-.48-.34-.8a1.05 1.05 0 0 0-.8-.34h-3.86a.73.73 0 0 0-.5.2q-.2.18-.2.48zm18.41-14.72h2.32v14.72h-2.32v-1.48l-1.74 1.48h-3.44q-.6 0-1.12-.22a3.5 3.5 0 0 1-.9-.62 3.1 3.1 0 0 1-.6-.9 2.8 2.8 0 0 1-.22-1.1v-5.16q0-.6.22-1.1.24-.52.62-.9.4-.4.9-.62.52-.22 1.1-.22h5.18zm-.7 12.72a.65.65 0 0 0 .48-.2q.22-.2.22-.5v-6.12h-4.56q-.48 0-.82.34-.34.32-.34.8v4.52q0 .5.34.84.34.32.82.32zm8.755-6.88q-.52 0-.82.3-.28.3-.28.78v.3q0 .48.3.8.32.3.8.3h4q.58 0 1.08.22.52.2.9.58.381.38.6.88.22.5.22 1.08v.88q0 .58-.22 1.08a2.8 2.8 0 0 1-1.5 1.48 2.9 2.9 0 0 1-1.08.2h-4.52q-.58 0-1.1-.22a3.1 3.1 0 0 1-.9-.6 3.2 3.2 0 0 1-.62-.88 2.8 2.8 0 0 1-.22-1.1v-.36h2.26v.06q0 .5.32.82.34.32.84.32h3.36q.52 0 .8-.3.3-.3.3-.78v-.28q0-.48-.32-.78t-.78-.3h-4q-.58 0-1.1-.2a3.1 3.1 0 0 1-.88-.58 2.9 2.9 0 0 1-.6-.88 3 3 0 0 1-.2-1.1v-.92q0-.58.2-1.08.22-.5.6-.88t.88-.58q.52-.22 1.1-.22h4.32q.58 0 1.08.22.52.22.9.6.4.38.62.9.24.5.24 1.1v.36h-2.26v-.08q0-.5-.34-.82-.32-.32-.82-.32zm11.484 8.88h-2.3V12.02h2.3v1.42l1.68-1.42h3.5q.58 0 1.08.22.52.22.9.62.4.38.62.9.24.5.24 1.1v8h-2.32v-7.68q0-.48-.34-.8a1.05 1.05 0 0 0-.8-.34h-3.86a.73.73 0 0 0-.5.2q-.2.18-.2.48zm14.23-5.42-4.42-5.42h2.68l3.08 3.78 3.1-3.78h2.68l-4.44 5.42 4.44 5.42h-2.68l-3.1-3.78-3.08 3.78h-2.68zm10.76 5.42h-2.54v-2.32h2.54zm11.149 0h-2.3v-7.92q0-.4-.26-.64-.24-.26-.64-.26h-3.02a.73.73 0 0 0-.5.2q-.2.18-.2.48v8.14h-2.3V12.02h2.3v1.48l1.68-1.48h2.64q.82 0 1.48.42t.92 1.12l1.76-1.54h2.5q.561 0 1.08.22.52.22.92.62.4.38.62.9.24.5.24 1.1v8h-2.32v-7.68q0-.48-.34-.8a1.05 1.05 0 0 0-.8-.34h-2.76a.73.73 0 0 0-.5.2q-.2.18-.2.48zm17.047-10.84q.58 0 1.08.22.52.22.9.62.4.38.62.9.24.5.24 1.1v5.16q0 .58-.22 1.1a3.1 3.1 0 0 1-.6.9q-.38.38-.9.62-.52.22-1.12.22h-4.8q-.56 0-1.08-.22a3.1 3.1 0 0 1-.9-.6 3.5 3.5 0 0 1-.62-.9 2.8 2.8 0 0 1-.22-1.12v-5.16q0-.56.22-1.08t.6-.9q.38-.4.9-.62.52-.24 1.1-.24zm.52 3.16q0-.48-.34-.8a1.05 1.05 0 0 0-.8-.34h-3.54q-.48 0-.82.34-.34.32-.34.8v4.52q0 .5.34.84.34.32.82.32h3.54q.48 0 .8-.32a1.14 1.14 0 0 0 .34-.84zm6.978 7.68h-2.3V12.02h2.3v1.42l1.68-1.42h3.5q.58 0 1.08.22.52.22.9.62.4.38.62.9.24.5.24 1.1v8h-2.32v-7.68q0-.48-.34-.8a1.05 1.05 0 0 0-.8-.34h-3.86a.72.72 0 0 0-.5.2q-.2.18-.2.48zm13.81-8.86q-.48 0-.82.34-.32.32-.32.82v1.24h5.54v-1.3q0-.48-.32-.78-.3-.32-.78-.32zm-.6 8.86a2.8 2.8 0 0 1-1.1-.22 2.8 2.8 0 0 1-.9-.6 3 3 0 0 1-.6-.92 2.8 2.8 0 0 1-.22-1.1v-5.16q0-.6.22-1.1.219-.52.6-.9.38-.4.9-.62a2.8 2.8 0 0 1 1.1-.22h4.48q.579 0 1.08.22.52.22.88.6.38.36.6.88.22.5.22 1.08v3.38h-7.8v1.54q0 .5.32.84.34.32.82.32h3.24q.48 0 .82-.32.34-.34.34-.84v-.28h2.26v.72q0 .6-.24 1.1-.22.48-.62.84-.381.36-.9.56-.501.2-1.08.2zm13.171-.64-4.8-10.2h2.52l3.48 7.72 3.32-7.72h2.48l-6.68 14.76h-2.48z"/>
</svg>
