<svg width="224" height="30" fill="none" viewBox="0 0 224 30" xmlns="http://www.w3.org/2000/svg">
  <path fill="#00D1FF" d="M7.007 9.805a.95.95 0 0 0-.75-.35H.182a.18.18 0 0 1-.131-.052A.16.16 0 0 1 0 9.29V5.165q0-.062.05-.113A.18.18 0 0 1 .183 5h6.42q2.43 0 4.192 2l1.56 1.918-3.038 3.733zm11.22-2.825Q19.987 5 22.438 5h6.4q.08 0 .12.041.04.042.041.124V9.29a.18.18 0 0 1-.04.113q-.041.051-.122.051h-6.075a.95.95 0 0 0-.75.351l-4.475 5.486 4.496 5.527q.303.33.729.33h6.075q.08 0 .122.052.04.052.04.134v4.124a.18.18 0 0 1-.04.113q-.041.052-.122.052h-6.4q-2.45 0-4.191-2l-3.727-4.579-3.726 4.579q-1.763 2-4.212 2h-6.4q-.081 0-.121-.052a.2.2 0 0 1-.04-.134v-4.125q-.001-.06.04-.113.04-.051.121-.052h6.075q.425 0 .75-.35l4.394-5.403z"/>
  <path fill="#fff" d="M49.98 22.86h-6.5c-1.7 0-3.12-1.46-3.12-3.1V8.86h2.5v10.6c0 .7.56 1.28 1.26 1.28h5.2c.7 0 1.28-.58 1.28-1.28V8.86h2.5v10.9c0 1.66-1.42 3.1-3.12 3.1m5.79-14.72h2.32v14.72h-2.32zm11.5 12.72v2h-2.78c-1.54 0-2.8-1.2-2.8-2.78v-6.04h-1.88v-2.02h1.88V9.64h2.32v2.38h3.28v2.02h-3.28v5.7c0 .66.44 1.12 1.1 1.12zm4.217-6.14v8.14h-2.3V12.02h2.3v1.36l1.68-1.36h3.42v2.02h-4.4c-.38 0-.7.28-.7.68m9.533 6.14h3.62c.38 0 .7-.3.7-.7v-6.12h-4.32c-.64 0-1.16.5-1.16 1.14v4.52c0 .66.52 1.16 1.16 1.16m2.58 2h-3.2c-1.58 0-2.84-1.32-2.84-2.84v-5.16c0-1.58 1.32-2.84 2.84-2.84h7.24v10.84h-2.3v-1.48zm12.941-8.88h-3.16c-.68 0-1.1.44-1.1 1.08v.3c0 .64.46 1.1 1.1 1.1h4c1.54 0 2.8 1.22 2.8 2.76v.88c0 1.54-1.26 2.76-2.8 2.76h-4.52c-1.54 0-2.84-1.24-2.84-2.8v-.36h2.26v.06c0 .66.5 1.14 1.16 1.14h3.36c.68 0 1.1-.44 1.1-1.08v-.28c0-.64-.48-1.08-1.1-1.08h-4c-1.56 0-2.78-1.2-2.78-2.76v-.92c0-1.54 1.22-2.76 2.78-2.76h4.32c1.54 0 2.84 1.24 2.84 2.82v.36h-2.26v-.08c0-.66-.5-1.14-1.16-1.14m13.405-1.96a2.85 2.85 0 0 1 2.84 2.84v5.16c0 1.54-1.24 2.84-2.84 2.84h-4.8c-1.5 0-2.82-1.26-2.82-2.84v-5.16c0-1.52 1.26-2.84 2.82-2.84zm.52 7.68v-4.52c0-.64-.5-1.14-1.14-1.14h-3.54c-.64 0-1.16.5-1.16 1.14v4.52c0 .66.52 1.16 1.16 1.16h3.54c.64 0 1.14-.5 1.14-1.16m8.118 1.16h3.76c.38 0 .7-.3.7-.7v-8.14h2.32v10.84h-2.32V21.4l-1.68 1.46h-3.42c-1.52 0-2.82-1.26-2.82-2.84v-8h2.3v7.68c0 .66.5 1.16 1.16 1.16m11.672-6.14v8.14h-2.3V12.02h2.3v1.42l1.68-1.42h3.5a2.85 2.85 0 0 1 2.84 2.84v8h-2.32v-7.68c0-.64-.5-1.14-1.14-1.14h-3.86c-.38 0-.7.28-.7.68m18.41-2.7V8.14h2.32v14.72h-2.32v-1.48l-1.74 1.48h-3.44c-1.58 0-2.84-1.32-2.84-2.84v-5.16c0-1.58 1.32-2.84 2.84-2.84zm-4.56 8.84h3.86c.38 0 .7-.3.7-.7v-6.12h-4.56c-.64 0-1.16.5-1.16 1.14v4.52c0 .66.52 1.16 1.16 1.16m11.335-.32v2.32h-2.54v-2.32zm4.229-5.82v8.14h-2.3V8.14h2.3v5.28l1.68-1.4h3.5c1.54 0 2.84 1.24 2.84 2.84v8h-2.32v-7.68c0-.64-.5-1.14-1.14-1.14h-3.86c-.38 0-.7.28-.7.68m18.01-2.7a2.85 2.85 0 0 1 2.84 2.84v5.16c0 1.54-1.24 2.84-2.84 2.84h-4.8c-1.5 0-2.82-1.26-2.82-2.84v-5.16c0-1.52 1.26-2.84 2.82-2.84zm.52 7.68v-4.52c0-.64-.5-1.14-1.14-1.14h-3.54c-.64 0-1.16.5-1.16 1.14v4.52c0 .66.52 1.16 1.16 1.16h3.54c.64 0 1.14-.5 1.14-1.16m13.898-4.98v8.14h-2.3v-7.92c0-.54-.36-.9-.9-.9h-3.02c-.38 0-.7.28-.7.68v8.14h-2.3V12.02h2.3v1.48l1.68-1.48h2.64c1.08 0 2.06.62 2.4 1.54l1.76-1.54h2.5c1.52 0 2.86 1.26 2.86 2.84v8h-2.32v-7.68c0-.64-.5-1.14-1.14-1.14h-2.76c-.38 0-.7.28-.7.68m16.147-.72h-3.3c-.64 0-1.14.5-1.14 1.16v1.24h5.54v-1.3c0-.64-.46-1.1-1.1-1.1m.52 8.86h-4.42c-1.56 0-2.82-1.28-2.82-2.84v-5.16c0-1.58 1.26-2.84 2.82-2.84h4.48c1.56 0 2.78 1.24 2.78 2.78v3.38h-7.8v1.54c0 .66.5 1.16 1.14 1.16h3.24c.64 0 1.16-.5 1.16-1.16v-.28h2.26v.72c0 1.58-1.3 2.7-2.84 2.7m11.507-8.88h-3.16c-.68 0-1.1.44-1.1 1.08v.3c0 .64.46 1.1 1.1 1.1h4c1.54 0 2.8 1.22 2.8 2.76v.88c0 1.54-1.26 2.76-2.8 2.76h-4.52c-1.54 0-2.84-1.24-2.84-2.8v-.36h2.26v.06c0 .66.5 1.14 1.16 1.14h3.36c.68 0 1.1-.44 1.1-1.08v-.28c0-.64-.48-1.08-1.1-1.08h-4c-1.56 0-2.78-1.2-2.78-2.76v-.92c0-1.54 1.22-2.76 2.78-2.76h4.32c1.54 0 2.84 1.24 2.84 2.82v.36h-2.26v-.08c0-.66-.5-1.14-1.16-1.14"/>
</svg>
