<svg width="16" height="17" fill="none" viewBox="0 0 16 17" xmlns="http://www.w3.org/2000/svg">
  <g clip-path="url(#a)">
    <path fill="#2775CA" d="M8 16.5c4.433 0 8-3.567 8-8s-3.567-8-8-8a7.98 7.98 0 0 0-8 8c0 4.433 3.567 8 8 8"/>
    <path fill="#fff" d="M10.2 9.767c0-1.167-.7-1.567-2.1-1.734-1-.133-1.2-.4-1.2-.866 0-.467.333-.767 1-.767.6 0 .933.2 1.1.7a.25.25 0 0 0 .233.167h.534c.133 0 .233-.1.233-.234V7a1.665 1.665 0 0 0-1.5-1.367v-.8c0-.133-.1-.233-.267-.266h-.5c-.133 0-.233.1-.266.266V5.6c-1 .133-1.634.8-1.634 1.633 0 1.1.667 1.534 2.067 1.7.933.167 1.233.367 1.233.9 0 .534-.466.9-1.1.9-.866 0-1.166-.366-1.266-.866-.034-.134-.134-.2-.234-.2h-.566c-.134 0-.234.1-.234.233v.033c.134.834.667 1.434 1.767 1.6v.8c0 .134.1.234.267.267h.5c.133 0 .233-.1.266-.267v-.8c1-.166 1.667-.866 1.667-1.766"/>
    <path fill="#fff" d="M6.3 13.267c-2.6-.934-3.933-3.834-2.967-6.4.5-1.4 1.6-2.467 2.967-2.967.133-.067.2-.167.2-.333V3.1c0-.133-.067-.233-.2-.267-.033 0-.1 0-.133.034-3.167 1-4.9 4.366-3.9 7.533a6 6 0 0 0 3.9 3.9c.133.067.266 0 .3-.133.033-.034.033-.067.033-.134v-.466c0-.1-.1-.234-.2-.3m3.533-10.4c-.133-.067-.266 0-.3.133-.033.033-.033.067-.033.133V3.6c0 .133.1.267.2.333 2.6.934 3.933 3.834 2.967 6.4A4.93 4.93 0 0 1 9.7 13.3c-.133.067-.2.167-.2.333v.467c0 .133.067.233.2.267.033 0 .1 0 .133-.034 3.167-1 4.9-4.366 3.9-7.533a6.05 6.05 0 0 0-3.9-3.933"/>
  </g>
  <defs>
    <clipPath id="a">
      <path fill="#fff" d="M0 .5h16v16H0z"/>
    </clipPath>
  </defs>
</svg>
