<svg width="103" height="179" viewBox="0 0 103 179" fill="none" xmlns="http://www.w3.org/2000/svg">
<path d="M54.8431 94.7949L98.6752 120.247L98.6526 124.3L54.7001 149.859L47.7059 149.851L3.8678 124.394L3.87211 120.35L47.8628 94.8038L54.8431 94.7949Z" fill="#6B59FF"/>
<rect width="44.3767" height="44.3767" transform="matrix(0.864779 0.502153 -0.864779 0.502153 51.2146 103.506)" fill="#00D1FF"/>
<path d="M16.9326 128.164L51.2422 108.227L51.2422 112.942L20.9982 130.528L16.9326 128.164Z" fill="#008EAD"/>
<path d="M51.2146 108.246L85.5332 128.164L81.458 130.512L51.2146 112.964L51.2146 108.246Z" fill="#008EAD"/>
<path d="M12.8367 125.792L51.2145 103.507L51.2145 105.983L14.9759 127.037L12.8367 125.792Z" fill="#2D1EA6"/>
<path d="M51.2146 103.506L89.5879 125.789L87.4693 127.038L51.2146 105.986L51.2146 103.506Z" fill="#402FC8"/>
<path d="M14.8117 126.928L51.2176 105.769L51.2176 108.245L16.9231 128.171L14.8117 126.928Z" fill="#2D1EA6"/>
<path d="M51.2146 105.769L87.6608 126.913L85.5102 128.163L51.2146 108.249L51.2146 105.769Z" fill="#402FC8"/>
<mask id="path-9-inside-1_12669_13720" fill="white">
<path d="M3.66382 123.871L47.8464 149.526L47.8464 172.675L3.66382 147.02L3.66382 123.871Z"/>
</mask>
<path d="M3.66382 123.871L47.8464 149.526L47.8464 172.675L3.66382 147.02L3.66382 123.871Z" fill="#402FC8"/>
<path d="M47.4141 149.275L47.4141 172.424L48.2788 172.927L48.2788 149.777L47.4141 149.275Z" fill="#AEA4FF" mask="url(#path-9-inside-1_12669_13720)"/>
<mask id="path-11-inside-2_12669_13720" fill="white">
<path d="M54.8589 149.561L99.0411 123.906L99.0411 147.052L54.8589 172.708L54.8589 149.561Z"/>
</mask>
<path d="M54.8589 149.561L99.0411 123.906L99.0411 147.052L54.8589 172.708L54.8589 149.561Z" fill="#2D1EA6"/>
<path d="M55.2913 172.457L55.2913 149.31L54.4265 149.812L54.4265 172.959L55.2913 172.457Z" fill="#AEA4FF" mask="url(#path-11-inside-2_12669_13720)"/>
<mask id="path-13-inside-3_12669_13720" fill="white">
<path d="M47.8423 149.452H54.8675V172.675H47.8423V149.452Z"/>
</mask>
<path d="M47.8423 149.452H54.8675V172.675H47.8423V149.452Z" fill="#2D1EA6"/>
<path d="M47.8423 149.452V148.952H47.3423V149.452H47.8423ZM54.8675 149.452H55.3675V148.952H54.8675V149.452ZM47.8423 149.952H54.8675V148.952H47.8423V149.952ZM54.3675 149.452V172.675H55.3675V149.452H54.3675ZM48.3423 172.675V149.452H47.3423V172.675H48.3423Z" fill="#AEA4FF" mask="url(#path-13-inside-3_12669_13720)"/>
<path d="M3.66821 123.839L47.8528 149.507H54.8572L99.0474 123.838" stroke="#AEA4FF"/>
<path d="M12.8482 40H89.5897V123.16C89.5897 126.172 85.6793 127.966 82.9017 129.643L51.2124 148.049L19.4952 129.659C15.965 127.577 12.8352 126.172 12.8352 123.16V40H12.8482Z" fill="url(#paint0_linear_12669_13720)"/>
<path d="M80.2026 40H22.4473V125.684H80.2026V40Z" fill="url(#paint1_linear_12669_13720)"/>
<circle cx="22.9771" cy="22.9771" r="22.9771" transform="matrix(0.866025 0.5 -2.20305e-08 1 32.5779 13)" fill="#06061B"/>
<circle cx="22.9771" cy="22.9771" r="22.9771" transform="matrix(0.866025 0.5 -2.20305e-08 1 30.5803 14.1619)" fill="#06061B"/>
<circle cx="23.1357" cy="23.1357" r="23.1357" transform="matrix(0.866025 0.5 -2.20305e-08 1 30.5 14.3032)" fill="white"/>
<g clip-path="url(#clip0_12669_13720)">
<path d="M50.5011 72.1222C61.586 78.5221 70.5722 73.3521 70.5722 60.5746C70.5722 47.7971 61.586 32.2508 50.5011 25.8509C39.9844 19.7791 31.3568 24.1214 30.5 35.4941L57.0293 50.8108L57.0293 54.7003L30.5 39.3836C31.3568 51.7458 39.9844 66.0504 50.5011 72.1222Z" fill="#0052FF"/>
</g>
<defs>
<linearGradient id="paint0_linear_12669_13720" x1="51.2124" y1="40" x2="51.2124" y2="128.622" gradientUnits="userSpaceOnUse">
<stop stop-color="#2EDAFF" stop-opacity="0"/>
<stop offset="1" stop-color="#2EDAFF" stop-opacity="0.2"/>
</linearGradient>
<linearGradient id="paint1_linear_12669_13720" x1="51.3249" y1="40" x2="51.3249" y2="125.684" gradientUnits="userSpaceOnUse">
<stop stop-color="#2EDAFF" stop-opacity="0"/>
<stop offset="0.864583" stop-color="#2EDAFF" stop-opacity="0.2"/>
<stop offset="1" stop-color="#2EDAFF" stop-opacity="0"/>
</linearGradient>
<clipPath id="clip0_12669_13720">
<rect width="46.2714" height="46.2714" fill="white" transform="matrix(0.866025 0.5 -2.20305e-08 1 30.5 14.3032)"/>
</clipPath>
</defs>
</svg>
