<svg width="103" height="179" fill="none" viewBox="0 0 103 179" xmlns="http://www.w3.org/2000/svg">
  <path fill="#6B59FF" d="m54.843 94.795 43.832 25.452-.022 4.053L54.7 149.859l-6.994-.008-43.838-25.457.004-4.044 43.99-25.546z"/>
  <path fill="#00D1FF" d="M51.215 103.506 89.59 125.79l-38.376 22.284-38.377-22.284z"/>
  <path fill="#008EAD" d="m16.933 128.164 34.31-19.937v4.715l-30.245 17.586z"/>
  <path fill="#008EAD" d="m51.215 108.246 34.318 19.918-4.075 2.348-30.243-17.548z"/>
  <path fill="#2D1EA6" d="m12.837 125.792 38.378-22.285v2.476l-36.24 21.054z"/>
  <path fill="#402FC8" d="m51.215 103.506 38.373 22.283-2.119 1.249-36.254-21.052z"/>
  <path fill="#2D1EA6" d="m14.812 126.928 36.406-21.159v2.476l-34.295 19.926z"/>
  <path fill="#402FC8" d="m51.215 105.769 36.446 21.144-2.15 1.25-34.296-19.914z"/>
  <mask id="a" fill="#fff">
    <path d="m3.664 123.871 44.182 25.655v23.149L3.664 147.02z"/>
  </mask>
  <path fill="#402FC8" d="m3.664 123.871 44.182 25.655v23.149L3.664 147.02z"/>
  <path fill="#AEA4FF" d="M47.414 149.275v23.149l.865.503v-23.15z" mask="url(#a)"/>
  <mask id="b" fill="#fff">
    <path d="m54.859 149.561 44.182-25.655v23.146L54.86 172.708z"/>
  </mask>
  <path fill="#2D1EA6" d="m54.859 149.561 44.182-25.655v23.146L54.86 172.708z"/>
  <path fill="#AEA4FF" d="M55.291 172.457V149.31l-.864.502v23.147z" mask="url(#b)"/>
  <mask id="c" fill="#fff">
    <path d="M47.842 149.452h7.026v23.223h-7.026z"/>
  </mask>
  <path fill="#2D1EA6" d="M47.842 149.452h7.026v23.223h-7.026z"/>
  <path fill="#AEA4FF" d="M47.842 149.452v-.5h-.5v.5zm7.026 0h.5v-.5h-.5zm-7.026.5h7.026v-1h-7.026zm6.526-.5v23.223h1v-23.223zm-6.026 23.223v-23.223h-1v23.223z" mask="url(#c)"/>
  <path stroke="#AEA4FF" d="m3.668 123.839 44.185 25.668h7.004l44.19-25.669"/>
  <path fill="url(#d)" d="M12.848 40H89.59v83.16c0 3.012-3.91 4.806-6.688 6.483l-31.69 18.406-31.717-18.39c-3.53-2.082-6.66-3.487-6.66-6.499V40z"/>
  <path fill="url(#e)" d="M80.203 40H22.447v85.684h57.756z"/>
  <circle cx="22.977" cy="22.977" r="22.977" fill="#06061B" transform="matrix(.86603 .5 0 1 32.578 13)"/>
  <circle cx="22.977" cy="22.977" r="22.977" fill="#06061B" transform="matrix(.86603 .5 0 1 30.58 14.162)"/>
  <circle cx="23.136" cy="23.136" r="23.136" fill="#fff" transform="matrix(.86603 .5 0 1 30.5 14.303)"/>
  <g clip-path="url(#f)">
    <path fill="#0052FF" d="M50.501 72.122c11.085 6.4 20.071 1.23 20.071-11.547S61.586 32.25 50.502 25.85c-10.518-6.072-19.145-1.73-20.002 9.643L57.03 50.81v3.89L30.5 39.383c.857 12.362 9.484 26.666 20.001 32.738"/>
  </g>
  <defs>
    <linearGradient id="d" x1="51.212" x2="51.212" y1="40" y2="128.622" gradientUnits="userSpaceOnUse">
      <stop stop-color="#2EDAFF" stop-opacity="0"/>
      <stop offset="1" stop-color="#2EDAFF" stop-opacity=".2"/>
    </linearGradient>
    <linearGradient id="e" x1="51.325" x2="51.325" y1="40" y2="125.684" gradientUnits="userSpaceOnUse">
      <stop stop-color="#2EDAFF" stop-opacity="0"/>
      <stop offset=".865" stop-color="#2EDAFF" stop-opacity=".2"/>
      <stop offset="1" stop-color="#2EDAFF" stop-opacity="0"/>
    </linearGradient>
    <clipPath id="f">
      <path fill="#fff" d="M30.5 14.303 70.572 37.44v46.27L30.5 60.575z"/>
    </clipPath>
  </defs>
</svg>
