<svg width="279" height="179" viewBox="0 0 279 179" fill="none" xmlns="http://www.w3.org/2000/svg">
<path d="M142.843 94.7949L186.675 120.247L186.653 124.3L142.7 149.859L135.706 149.851L91.8678 124.394L91.8721 120.35L135.863 94.8038L142.843 94.7949Z" fill="#6B59FF"/>
<rect width="44.3767" height="44.3767" transform="matrix(0.864779 0.502153 -0.864779 0.502153 139.215 103.506)" fill="#00D1FF"/>
<path d="M104.933 128.164L139.242 108.227L139.242 112.942L108.998 130.528L104.933 128.164Z" fill="#008EAD"/>
<path d="M139.215 108.246L173.533 128.164L169.458 130.512L139.215 112.964L139.215 108.246Z" fill="#008EAD"/>
<path d="M100.837 125.792L139.215 103.507L139.215 105.983L102.976 127.037L100.837 125.792Z" fill="#2D1EA6"/>
<path d="M139.215 103.506L177.588 125.789L175.469 127.038L139.215 105.986L139.215 103.506Z" fill="#402FC8"/>
<path d="M102.812 126.928L139.218 105.769L139.218 108.245L104.923 128.171L102.812 126.928Z" fill="#2D1EA6"/>
<path d="M139.215 105.769L175.661 126.913L173.51 128.163L139.215 108.249L139.215 105.769Z" fill="#402FC8"/>
<mask id="path-9-inside-1_12963_24046" fill="white">
<path d="M91.6638 123.871L135.846 149.526L135.846 172.675L91.6638 147.02L91.6638 123.871Z"/>
</mask>
<path d="M91.6638 123.871L135.846 149.526L135.846 172.675L91.6638 147.02L91.6638 123.871Z" fill="#402FC8"/>
<path d="M135.414 149.275L135.414 172.424L136.279 172.927L136.279 149.777L135.414 149.275Z" fill="#AEA4FF" mask="url(#path-9-inside-1_12963_24046)"/>
<mask id="path-11-inside-2_12963_24046" fill="white">
<path d="M142.859 149.561L187.041 123.906L187.041 147.052L142.859 172.708L142.859 149.561Z"/>
</mask>
<path d="M142.859 149.561L187.041 123.906L187.041 147.052L142.859 172.708L142.859 149.561Z" fill="#2D1EA6"/>
<path d="M143.291 172.457L143.291 149.31L142.426 149.812L142.426 172.959L143.291 172.457Z" fill="#AEA4FF" mask="url(#path-11-inside-2_12963_24046)"/>
<mask id="path-13-inside-3_12963_24046" fill="white">
<path d="M135.842 149.452H142.867V172.675H135.842V149.452Z"/>
</mask>
<path d="M135.842 149.452H142.867V172.675H135.842V149.452Z" fill="#2D1EA6"/>
<path d="M135.842 149.452V148.952H135.342V149.452H135.842ZM142.867 149.452H143.367V148.952H142.867V149.452ZM135.842 149.952H142.867V148.952H135.842V149.952ZM142.367 149.452V172.675H143.367V149.452H142.367ZM136.342 172.675V149.452H135.342V172.675H136.342Z" fill="#AEA4FF" mask="url(#path-13-inside-3_12963_24046)"/>
<path d="M91.6682 123.839L135.853 149.507H142.857L187.047 123.838" stroke="#AEA4FF"/>
<path d="M100.848 40H177.59V123.16C177.59 126.172 173.679 127.966 170.902 129.643L139.212 148.049L107.495 129.659C103.965 127.577 100.835 126.172 100.835 123.16V40H100.848Z" fill="url(#paint0_linear_12963_24046)"/>
<path d="M168.203 40H110.447V125.684H168.203V40Z" fill="url(#paint1_linear_12963_24046)"/>
<circle cx="22.9771" cy="22.9771" r="22.9771" transform="matrix(0.866025 0.5 -2.20305e-08 1 120.578 13)" fill="#06061B"/>
<circle cx="22.9771" cy="22.9771" r="22.9771" transform="matrix(0.866025 0.5 -2.20305e-08 1 118.58 14.1619)" fill="#06061B"/>
<circle cx="23.1357" cy="23.1357" r="23.1357" transform="matrix(0.866025 0.5 -2.20305e-08 1 118.5 14.3032)" fill="white"/>
<g clip-path="url(#clip0_12963_24046)">
<path d="M138.501 72.1222C149.586 78.5221 158.572 73.3521 158.572 60.5746C158.572 47.7971 149.586 32.2508 138.501 25.8509C127.984 19.7791 119.357 24.1214 118.5 35.4941L145.029 50.8108L145.029 54.7003L118.5 39.3836C119.357 51.7458 127.984 66.0504 138.501 72.1222Z" fill="#0052FF"/>
</g>
<defs>
<linearGradient id="paint0_linear_12963_24046" x1="139.212" y1="40" x2="139.212" y2="128.622" gradientUnits="userSpaceOnUse">
<stop stop-color="#2EDAFF" stop-opacity="0"/>
<stop offset="1" stop-color="#2EDAFF" stop-opacity="0.2"/>
</linearGradient>
<linearGradient id="paint1_linear_12963_24046" x1="139.325" y1="40" x2="139.325" y2="125.684" gradientUnits="userSpaceOnUse">
<stop stop-color="#2EDAFF" stop-opacity="0"/>
<stop offset="0.864583" stop-color="#2EDAFF" stop-opacity="0.2"/>
<stop offset="1" stop-color="#2EDAFF" stop-opacity="0"/>
</linearGradient>
<clipPath id="clip0_12963_24046">
<rect width="46.2714" height="46.2714" fill="white" transform="matrix(0.866025 0.5 -2.20305e-08 1 118.5 14.3032)"/>
</clipPath>
</defs>
</svg>
