<svg width="66" height="66" fill="none" viewBox="0 0 66 66" xmlns="http://www.w3.org/2000/svg">
  <path fill="#0E052F" d="M65.784 33c0 18.225-14.726 33-32.892 33S0 51.225 0 33 14.726 0 32.892 0s32.892 14.775 32.892 33"/>
  <path fill="#00D1FF" d="M22.163 25.093a1.37 1.37 0 0 0-1.067-.494h-8.654a.25.25 0 0 1-.187-.072.22.22 0 0 1-.073-.16v-5.802q0-.086.073-.16a.25.25 0 0 1 .187-.072h9.145q3.461 0 5.971 2.814l2.221 2.698-4.327 5.251zm15.982-3.974q2.511-2.786 6-2.786h9.117q.115 0 .173.058.057.06.057.174v5.802q0 .087-.057.16-.058.072-.173.072h-8.654q-.635 0-1.068.494l-6.375 7.717 6.404 7.775q.433.465 1.039.464h8.654q.115 0 .173.073a.3.3 0 0 1 .057.188v5.802q0 .087-.057.16-.058.072-.173.072h-9.116q-3.49 0-5.972-2.814l-5.307-6.44-5.309 6.44q-2.51 2.815-6 2.814h-9.116q-.116 0-.173-.072a.3.3 0 0 1-.058-.19V41.28q0-.085.058-.159.057-.073.173-.073h8.654q.606.001 1.067-.493l6.26-7.6z"/>
</svg>
