<svg width="103" height="179" fill="none" viewBox="0 0 103 179" xmlns="http://www.w3.org/2000/svg">
  <path fill="#6B59FF" d="M54.838 86.258 98.67 111.71l-.01 4.046-43.801 25.471-6.983-.016-43.838-25.456-.007-4.037L47.87 86.259z"/>
  <path fill="#00B0D6" d="m51.215 91.324 38.376 22.284-38.376 22.284-38.376-22.284z"/>
  <path fill="#008EAD" d="m16.933 115.981 34.31-19.936v4.715l-30.245 17.585z"/>
  <path fill="#008EAD" d="m51.215 96.063 34.319 19.919-4.076 2.347-30.243-17.547z"/>
  <path fill="#2D1EA6" d="m12.837 113.609 38.378-22.285V93.8l-36.24 21.055z"/>
  <path fill="#402FC8" d="m51.215 91.324 38.373 22.283-2.118 1.249-36.255-21.052z"/>
  <path fill="#2D1EA6" d="m14.812 114.746 36.406-21.16v2.477l-34.295 19.925z"/>
  <path fill="#402FC8" d="M51.215 93.586 87.66 114.73l-2.15 1.251-34.296-19.915z"/>
  <mask id="a" fill="#fff">
    <path d="m3.663 115.197 44.182 25.656V164L3.663 138.344z"/>
  </mask>
  <path fill="#402FC8" d="m3.663 115.197 44.182 25.656V164L3.663 138.344z"/>
  <path fill="#AEA4FF" d="M47.413 140.602v23.147l.865.502v-23.147z" mask="url(#a)"/>
  <mask id="b" fill="#fff">
    <path d="m54.859 140.721 44.182-25.656v23.147L54.86 163.868z"/>
  </mask>
  <path fill="#2D1EA6" d="m54.859 140.721 44.182-25.656v23.147L54.86 163.868z"/>
  <path fill="#AEA4FF" d="M55.291 163.616V140.47l-.864.502v23.147z" mask="url(#b)"/>
  <mask id="c" fill="#fff">
    <path d="M47.842 140.853h7.025v23.015h-7.025z"/>
  </mask>
  <path fill="#2D1EA6" d="M47.842 140.853h7.025v23.015h-7.025z"/>
  <path fill="#AEA4FF" d="M47.842 140.853v-.5h-.5v.5zm7.025 0h.5v-.5h-.5zm-7.025.5h7.025v-1h-7.025zm6.525-.5v23.015h1v-23.015zm-6.025 23.015v-23.015h-1v23.015z" mask="url(#c)"/>
  <path stroke="#AEA4FF" d="m3.668 115.185 44.185 25.668h7.004l44.19-25.669"/>
  <path fill="#C9C9D9" d="m51.352 131.971 45.12-26.2v7.97l-45.12 26.2z"/>
  <path fill="#E2E2F0" d="m6.23 105.651 45.12 26.2v8.089l-45.12-26.2z"/>
  <path fill="#6B59FF" d="m54.843 54.795 43.832 25.452-.022 4.053L54.7 109.86l-6.994-.008L3.868 84.394l.004-4.044 43.99-25.546z"/>
  <path fill="#00D1FF" d="M51.215 63.506 89.59 85.79l-38.376 22.284L12.838 85.79z"/>
  <path fill="#008EAD" d="m16.933 88.164 34.31-19.937v4.715L20.997 90.529z"/>
  <path fill="#008EAD" d="m51.215 68.246 34.318 19.918-4.075 2.348-30.243-17.548z"/>
  <path fill="#2D1EA6" d="m12.837 85.792 38.378-22.285v2.476l-36.24 21.054z"/>
  <path fill="#402FC8" d="M51.215 63.506 89.588 85.79l-2.119 1.25-36.254-21.053z"/>
  <path fill="#2D1EA6" d="m14.812 86.928 36.406-21.16v2.477L16.923 88.171z"/>
  <path fill="#402FC8" d="M51.215 65.769 87.66 86.913l-2.15 1.25L51.214 68.25z"/>
  <mask id="d" fill="#fff">
    <path d="m3.664 83.87 44.182 25.656v23.149L3.664 107.02z"/>
  </mask>
  <path fill="#402FC8" d="m3.664 83.87 44.182 25.656v23.149L3.664 107.02z"/>
  <path fill="#AEA4FF" d="M47.414 109.275v23.149l.865.503v-23.15z" mask="url(#d)"/>
  <mask id="e" fill="#fff">
    <path d="M54.859 109.561 99.04 83.906v23.146l-44.18 25.656z"/>
  </mask>
  <path fill="#2D1EA6" d="M54.859 109.561 99.04 83.906v23.146l-44.18 25.656z"/>
  <path fill="#AEA4FF" d="M55.291 132.457V109.31l-.864.502v23.147z" mask="url(#e)"/>
  <mask id="f" fill="#fff">
    <path d="M47.842 109.452h7.026v23.223h-7.026z"/>
  </mask>
  <path fill="#2D1EA6" d="M47.842 109.452h7.026v23.223h-7.026z"/>
  <path fill="#AEA4FF" d="M47.842 109.452v-.5h-.5v.5zm7.026 0h.5v-.5h-.5zm-7.026.5h7.026v-1h-7.026zm6.526-.5v23.223h1v-23.223zm-6.026 23.223v-23.223h-1v23.223z" mask="url(#f)"/>
  <path stroke="#AEA4FF" d="m3.668 83.839 44.185 25.668h7.004l44.19-25.67"/>
  <circle cx="18.647" cy="18.647" r="18.647" fill="#06061B" transform="matrix(.86603 .5 0 1 10.152 95.976)"/>
  <circle cx="18.647" cy="18.647" r="18.647" fill="#06061B" transform="matrix(.86603 .5 0 1 8.531 96.919)"/>
  <g clip-path="url(#g)">
    <path fill="#627EEA" d="M24.725 143.972c8.98 5.184 16.26.981 16.26-9.388s-7.28-22.978-16.26-28.163-16.26-.981-16.26 9.388 7.28 22.978 16.26 28.163"/>
    <path fill="#fff" fill-opacity=".602" d="M25.23 111.407v10.409l7.62 8.33z"/>
    <path fill="#fff" d="m25.23 111.407-7.619 9.941 7.62.468z"/>
    <path fill="#fff" fill-opacity=".602" d="M25.23 132.492v7.072l7.625-7.777z"/>
    <path fill="#fff" d="M25.23 139.564v-7.073l-7.619-9.505z"/>
    <path fill="#fff" fill-opacity=".2" d="m25.23 130.855 7.62-.709-7.62-8.328z"/>
    <path fill="#fff" fill-opacity=".602" d="m17.611 121.348 7.62 9.507v-9.037z"/>
  </g>
  <path fill="url(#h)" d="M12.848 0H89.59v83.16c0 3.011-3.91 4.806-6.688 6.483l-31.69 18.406-31.717-18.39c-3.53-2.082-6.66-3.488-6.66-6.499V0z"/>
  <path fill="url(#i)" d="M80.203 0H22.447v85.684h57.756z"/>
  <defs>
    <linearGradient id="h" x1="51.212" x2="51.212" y1="0" y2="88.622" gradientUnits="userSpaceOnUse">
      <stop stop-color="#2EDAFF" stop-opacity="0"/>
      <stop offset="1" stop-color="#2EDAFF" stop-opacity=".2"/>
    </linearGradient>
    <linearGradient id="i" x1="51.325" x2="51.325" y1="0" y2="85.684" gradientUnits="userSpaceOnUse">
      <stop stop-color="#2EDAFF" stop-opacity="0"/>
      <stop offset=".865" stop-color="#2EDAFF" stop-opacity=".2"/>
      <stop offset="1" stop-color="#2EDAFF" stop-opacity="0"/>
    </linearGradient>
    <clipPath id="g">
      <path fill="#fff" d="m8.465 97.034 32.52 18.775v37.55l-32.52-18.775z"/>
    </clipPath>
  </defs>
</svg>
