<svg width="103" height="179" viewBox="0 0 103 179" fill="none" xmlns="http://www.w3.org/2000/svg">
<path d="M54.8377 86.2575L98.6697 111.71L98.6592 115.756L54.8585 141.227L47.8763 141.211L4.03828 115.755L4.03057 111.718L47.8695 86.2594L54.8377 86.2575Z" fill="#6B59FF"/>
<rect width="44.3767" height="44.3767" transform="matrix(0.864779 0.502153 -0.864779 0.502153 51.2148 91.3237)" fill="#00B0D6"/>
<path d="M16.9326 115.981L51.2422 96.0447L51.2422 100.76L20.9982 118.345L16.9326 115.981Z" fill="#008EAD"/>
<path d="M51.2148 96.0632L85.5335 115.982L81.4582 118.329L51.2149 100.782L51.2148 96.0632Z" fill="#008EAD"/>
<path d="M12.8367 113.609L51.2145 91.3239L51.2145 93.8004L14.9759 114.855L12.8367 113.609Z" fill="#2D1EA6"/>
<path d="M51.2148 91.3237L89.5881 113.607L87.4696 114.856L51.2148 93.8037L51.2148 91.3237Z" fill="#402FC8"/>
<path d="M14.8117 114.746L51.2176 93.5866L51.2176 96.063L16.9231 115.988L14.8117 114.746Z" fill="#2D1EA6"/>
<path d="M51.2148 93.5864L87.6611 114.73L85.5105 115.981L51.2148 96.0664L51.2148 93.5864Z" fill="#402FC8"/>
<mask id="path-9-inside-1_12669_5614" fill="white">
<path d="M3.6626 115.197L47.8452 140.853L47.8452 164L3.6626 138.344L3.6626 115.197Z"/>
</mask>
<path d="M3.6626 115.197L47.8452 140.853L47.8452 164L3.6626 138.344L3.6626 115.197Z" fill="#402FC8"/>
<path d="M47.4128 140.602L47.4128 163.749L48.2776 164.251L48.2776 141.104L47.4128 140.602Z" fill="#AEA4FF" mask="url(#path-9-inside-1_12669_5614)"/>
<mask id="path-11-inside-2_12669_5614" fill="white">
<path d="M54.8589 140.721L99.0411 115.065L99.0411 138.212L54.8589 163.868L54.8589 140.721Z"/>
</mask>
<path d="M54.8589 140.721L99.0411 115.065L99.0411 138.212L54.8589 163.868L54.8589 140.721Z" fill="#2D1EA6"/>
<path d="M55.2913 163.616L55.2913 140.47L54.4265 140.972L54.4265 164.119L55.2913 163.616Z" fill="#AEA4FF" mask="url(#path-11-inside-2_12669_5614)"/>
<mask id="path-13-inside-3_12669_5614" fill="white">
<path d="M47.842 140.853H54.8672V163.868H47.842V140.853Z"/>
</mask>
<path d="M47.842 140.853H54.8672V163.868H47.842V140.853Z" fill="#2D1EA6"/>
<path d="M47.842 140.853V140.353H47.342V140.853H47.842ZM54.8672 140.853H55.3672V140.353H54.8672V140.853ZM47.842 141.353H54.8672V140.353H47.842V141.353ZM54.3672 140.853V163.868H55.3672V140.853H54.3672ZM48.342 163.868V140.853H47.342V163.868H48.342Z" fill="#AEA4FF" mask="url(#path-13-inside-3_12669_5614)"/>
<path d="M3.66797 115.185L47.8526 140.853H54.857L99.0472 115.184" stroke="#AEA4FF"/>
<path d="M51.3521 131.971L96.4725 105.771L96.4725 113.741L51.3521 139.941L51.3521 131.971Z" fill="#C9C9D9"/>
<path d="M6.22998 105.651L51.3504 131.851L51.3504 139.94L6.22998 113.74L6.22998 105.651Z" fill="#E2E2F0"/>
<path d="M54.8431 54.7949L98.6752 80.2471L98.6526 84.3005L54.7001 109.859L47.7059 109.851L3.8678 84.3944L3.87211 80.3502L47.8628 54.8038L54.8431 54.7949Z" fill="#6B59FF"/>
<rect width="44.3767" height="44.3767" transform="matrix(0.864779 0.502153 -0.864779 0.502153 51.2146 63.5061)" fill="#00D1FF"/>
<path d="M16.9326 88.1641L51.2422 68.2273L51.2422 72.9425L20.9982 90.5277L16.9326 88.1641Z" fill="#008EAD"/>
<path d="M51.2146 68.2458L85.5332 88.1642L81.458 90.512L51.2146 72.9643L51.2146 68.2458Z" fill="#008EAD"/>
<path d="M12.8367 85.7916L51.2145 63.5066L51.2145 65.983L14.9759 87.0374L12.8367 85.7916Z" fill="#2D1EA6"/>
<path d="M51.2146 63.5061L89.5879 85.7891L87.4693 87.0381L51.2146 65.986L51.2146 63.5061Z" fill="#402FC8"/>
<path d="M14.8117 86.928L51.2176 65.7689L51.2176 68.2454L16.9231 88.1709L14.8117 86.928Z" fill="#2D1EA6"/>
<path d="M51.2146 65.769L87.6608 86.913L85.5102 88.1635L51.2146 68.249L51.2146 65.769Z" fill="#402FC8"/>
<mask id="path-26-inside-4_12669_5614" fill="white">
<path d="M3.66382 83.8706L47.8464 109.526L47.8464 132.675L3.66382 107.02L3.66382 83.8706Z"/>
</mask>
<path d="M3.66382 83.8706L47.8464 109.526L47.8464 132.675L3.66382 107.02L3.66382 83.8706Z" fill="#402FC8"/>
<path d="M47.4141 109.275L47.4141 132.424L48.2788 132.927L48.2788 109.777L47.4141 109.275Z" fill="#AEA4FF" mask="url(#path-26-inside-4_12669_5614)"/>
<mask id="path-28-inside-5_12669_5614" fill="white">
<path d="M54.8589 109.561L99.0411 83.9057L99.0411 107.052L54.8589 132.708L54.8589 109.561Z"/>
</mask>
<path d="M54.8589 109.561L99.0411 83.9057L99.0411 107.052L54.8589 132.708L54.8589 109.561Z" fill="#2D1EA6"/>
<path d="M55.2913 132.457L55.2913 109.31L54.4265 109.812L54.4265 132.959L55.2913 132.457Z" fill="#AEA4FF" mask="url(#path-28-inside-5_12669_5614)"/>
<mask id="path-30-inside-6_12669_5614" fill="white">
<path d="M47.8423 109.452H54.8675V132.675H47.8423V109.452Z"/>
</mask>
<path d="M47.8423 109.452H54.8675V132.675H47.8423V109.452Z" fill="#2D1EA6"/>
<path d="M47.8423 109.452V108.952H47.3423V109.452H47.8423ZM54.8675 109.452H55.3675V108.952H54.8675V109.452ZM47.8423 109.952H54.8675V108.952H47.8423V109.952ZM54.3675 109.452V132.675H55.3675V109.452H54.3675ZM48.3423 132.675V109.452H47.3423V132.675H48.3423Z" fill="#AEA4FF" mask="url(#path-30-inside-6_12669_5614)"/>
<path d="M3.66821 83.8386L47.8528 109.507H54.8572L99.0474 83.8376" stroke="#AEA4FF"/>
<circle cx="18.6466" cy="18.6466" r="18.6466" transform="matrix(0.866025 0.5 -2.20305e-08 1 10.1519 95.9761)" fill="#06061B"/>
<circle cx="18.6466" cy="18.6466" r="18.6466" transform="matrix(0.866025 0.5 -2.20305e-08 1 8.53125 96.9187)" fill="#06061B"/>
<g clip-path="url(#clip0_12669_5614)">
<path d="M24.7247 143.972C33.7047 149.156 40.9845 144.953 40.9845 134.584C40.9845 124.215 33.7047 111.606 24.7247 106.421C15.7446 101.237 8.46484 105.44 8.46484 115.809C8.46484 126.178 15.7446 138.787 24.7247 143.972Z" fill="#627EEA"/>
<path d="M25.2309 111.407L25.2309 121.816L32.8496 130.146L25.2309 111.407Z" fill="white" fill-opacity="0.602"/>
<path d="M25.2308 111.407L17.611 121.348L25.2308 121.816L25.2308 111.407Z" fill="white"/>
<path d="M25.2309 132.492L25.2309 139.564L32.8547 131.787L25.2309 132.492Z" fill="white" fill-opacity="0.602"/>
<path d="M25.2308 139.564L25.2308 132.491L17.611 122.986L25.2308 139.564Z" fill="white"/>
<path d="M25.2309 130.855L32.8496 130.146L25.2309 121.818L25.2309 130.855Z" fill="white" fill-opacity="0.2"/>
<path d="M17.611 121.348L25.2308 130.855L25.2308 121.818L17.611 121.348Z" fill="white" fill-opacity="0.602"/>
</g>
<path d="M12.8482 0H89.5897V83.16C89.5897 86.1715 85.6793 87.9664 82.9017 89.6431L51.2124 108.049L19.4952 89.6592C15.965 87.5767 12.8352 86.1715 12.8352 83.16V0H12.8482Z" fill="url(#paint0_linear_12669_5614)"/>
<path d="M80.2026 0H22.4473V85.6844H80.2026V0Z" fill="url(#paint1_linear_12669_5614)"/>
<defs>
<linearGradient id="paint0_linear_12669_5614" x1="51.2124" y1="0" x2="51.2124" y2="88.622" gradientUnits="userSpaceOnUse">
<stop stop-color="#2EDAFF" stop-opacity="0"/>
<stop offset="1" stop-color="#2EDAFF" stop-opacity="0.2"/>
</linearGradient>
<linearGradient id="paint1_linear_12669_5614" x1="51.3249" y1="0" x2="51.3249" y2="85.6844" gradientUnits="userSpaceOnUse">
<stop stop-color="#2EDAFF" stop-opacity="0"/>
<stop offset="0.864583" stop-color="#2EDAFF" stop-opacity="0.2"/>
<stop offset="1" stop-color="#2EDAFF" stop-opacity="0"/>
</linearGradient>
<clipPath id="clip0_12669_5614">
<rect width="37.5505" height="37.5505" fill="white" transform="matrix(0.866025 0.5 -2.20305e-08 1 8.46484 97.0337)"/>
</clipPath>
</defs>
</svg>
