<svg width="66" height="66" fill="none" viewBox="0 0 66 66" xmlns="http://www.w3.org/2000/svg">
  <path fill="url(#a)" d="M33 66c18.225 0 33-14.775 33-33S51.225 0 33 0 0 14.775 0 33s14.775 33 33 33"/>
  <path fill="#0B0B22" d="M23.934 42.24q-2.985 0-4.892-1.437-1.882-1.464-1.882-4.158 0-.566.125-1.386.327-1.848.929-4.44 1.706-7.059 8.806-7.059 1.932 0 3.462.667 1.53.642 2.409 1.951.878 1.284.878 3.08 0 .54-.125 1.36a59 59 0 0 1-.904 4.44q-.878 3.517-3.036 5.262-2.157 1.72-5.77 1.72m.351-3.696q1.406 0 2.384-.847 1.004-.847 1.43-2.592a64 64 0 0 0 .878-4.21q.1-.539.1-1.103 0-2.337-2.383-2.336-1.406 0-2.409.847-.978.848-1.405 2.592-.45 1.72-.903 4.21-.1.513-.1 1.078 0 2.361 2.408 2.361m10.636 3.439a.53.53 0 0 1-.426-.18.63.63 0 0 1-.076-.461l3.463-16.684a.74.74 0 0 1 .276-.462q.225-.18.476-.18h6.674q2.785 0 4.466 1.181 1.706 1.181 1.706 3.414 0 .642-.15 1.335-.628 2.951-2.535 4.363-1.881 1.412-5.168 1.412H40.24l-1.154 5.62a.74.74 0 0 1-.276.463q-.226.18-.477.18zm8.882-9.804q1.053 0 1.831-.59.803-.591 1.054-1.695.075-.435.075-.77 0-.744-.426-1.13-.427-.41-1.456-.41h-3.01l-.954 4.595z"/>
  <defs>
    <linearGradient id="a" x1="1.8" x2="78.759" y1="66" y2="43.349" gradientUnits="userSpaceOnUse">
      <stop stop-color="#31D8A4"/>
      <stop offset="1" stop-color="#00B0D6"/>
    </linearGradient>
  </defs>
</svg>
