<svg width="100" height="164" viewBox="0 0 100 164" fill="none" xmlns="http://www.w3.org/2000/svg">
    <path d="M54.4902 132.703L46.2822 127.964L46.2822 136.025L54.4902 140.763L54.4902 132.703Z" fill="#06061B" />
    <mask id="path-2-inside-1_9588_32860" fill="white">
        <path d="M95.2178 87.9097L52.7966 112.402L4.73398 84.6526L47.1552 60.1607L95.2178 87.9097Z" />
    </mask>
    <path d="M95.2178 87.9097L52.7966 112.402L4.73398 84.6526L47.1552 60.1607L95.2178 87.9097Z" fill="#6B59FF" />
    <path
        d="M52.7966 112.402L51.7562 113.002L52.7966 113.603L53.8369 113.002L52.7966 112.402ZM94.1774 87.309L51.7562 111.801L53.8369 113.002L96.2581 88.5103L94.1774 87.309ZM53.8369 111.801L5.77434 84.0519L3.69361 85.2532L51.7562 113.002L53.8369 111.801Z"
        fill="#AEA4FF" mask="url(#path-2-inside-1_9588_32860)" />
    <mask id="path-4-inside-2_9588_32860" fill="white">
        <path d="M95.2178 87.9097L52.7966 112.402L4.73398 84.6526L47.1552 60.1607L95.2178 87.9097Z" />
    </mask>
    <path d="M95.2178 87.9097L52.7966 112.402L4.73398 84.6526L47.1552 60.1607L95.2178 87.9097Z" fill="#6B59FF" />
    <path
        d="M52.7966 112.402L51.7562 113.002L52.7966 113.603L53.8369 113.002L52.7966 112.402ZM94.1774 87.309L51.7562 111.801L53.8369 113.002L96.2581 88.5103L94.1774 87.309ZM53.8369 111.801L5.77434 84.0519L3.69361 85.2532L51.7562 113.002L53.8369 111.801Z"
        fill="#AEA4FF" mask="url(#path-4-inside-2_9588_32860)" />
    <path
        d="M52.8273 112.404L43.6621 107.187L30.4786 99.5755L8.1581 86.6249L4.11183 89.7007L4.11183 96.6531L4.11183 104.208L4.11183 107.187L56.8455 135.937L56.8455 119.526L52.8273 112.404Z"
        fill="#402FC8" />
    <path
        d="M49.3954 110.427L40.2302 105.21L27.0468 97.5982L4.72621 84.6476L0.679941 87.7234L0.679941 94.6758L0.679941 96.7459L0.679941 101.817L53.4136 133.327L53.4136 117.548L49.3954 110.427Z"
        fill="#402FC8" />
    <path d="M56.8284 141.089L0.680301 108.672L0.680301 122.192L56.8284 154.609L56.8284 141.089Z" fill="#402FC8" />
    <path d="M56.8284 124.225L0.680301 91.808L0.680301 105.328L56.8284 137.745L56.8284 124.225Z" fill="#402FC8" />
    <path
        d="M8.13094 135.874L17.2962 141.091L30.4796 148.703L52.1881 161.281L56.8464 158.577L56.8464 151.625L56.8464 139.325L56.8464 148.703L4.11279 123.295L4.11279 128.753L8.13094 135.874Z"
        fill="#402FC8" />
    <path
        d="M4.69783 133.952L13.8631 139.169L27.0465 146.781L48.755 159.36L53.4133 156.655L53.4133 152.821L53.4133 150.048L53.4133 147.356L0.679688 121.5L0.679688 126.831L4.69783 133.952Z"
        fill="#402FC8" />
    <mask id="path-12-inside-3_9588_32860" fill="white">
        <path d="M99.2537 95.6543L56.8457 120.139L56.8457 137.744L99.2537 113.26L99.2537 95.6543Z" />
    </mask>
    <path d="M99.2537 95.6543L56.8457 120.139L56.8457 137.744L99.2537 113.26L99.2537 95.6543Z" fill="#2D1EA6" />
    <path d="M57.8861 119.538L57.8861 137.144L55.8054 138.345L55.8054 120.739L57.8861 119.538Z" fill="#AEA4FF"
        mask="url(#path-12-inside-3_9588_32860)" />
    <mask id="path-14-inside-4_9588_32860" fill="white">
        <path d="M99.2537 116.61L56.8457 141.095L56.8457 158.582L99.2537 134.098L99.2537 116.61Z" />
    </mask>
    <path d="M99.2537 116.61L56.8457 141.095L56.8457 158.582L99.2537 134.098L99.2537 116.61Z" fill="#2D1EA6" />
    <path d="M57.8861 140.494L57.8861 157.981L55.8054 159.183L55.8054 141.695L57.8861 140.494Z" fill="#AEA4FF"
        mask="url(#path-14-inside-4_9588_32860)" />
    <path d="M99.2549 116.613L58.3015 140.258L56.8461 139.417L97.7996 115.773L99.2549 116.613Z" fill="#6B59FF" />
    <path d="M74.7034 135.535L73.8302 136.039L73.8302 144.203L74.7034 143.699L74.7034 135.535Z" fill="#06061B" />
    <path d="M75.5764 135.028L74.7032 135.533L74.7032 143.698L75.5764 144.203L75.5764 135.028Z" fill="#402FC8" />
    <path d="M75.5758 144.203L73.8291 145.214L73.8294 144.203L74.7026 143.699L75.5758 144.203Z" fill="#6B59FF" />
    <path d="M77.3254 134.02L76.4522 134.524L76.4522 142.688L77.3254 142.184L77.3254 134.02Z" fill="#06061B" />
    <path d="M78.1982 133.514L77.325 134.018L77.325 142.184L78.1982 142.688L78.1982 133.514Z" fill="#402FC8" />
    <path d="M78.1979 142.688L76.4512 143.699L76.4515 142.688L77.3247 142.184L78.1979 142.688Z" fill="#6B59FF" />
    <path d="M79.9458 132.505L79.0726 133.01L79.0726 141.173L79.9458 140.669L79.9458 132.505Z" fill="#06061B" />
    <path d="M80.8188 131.999L79.9456 132.503L79.9456 140.669L80.8188 141.173L80.8188 131.999Z" fill="#402FC8" />
    <path d="M80.8185 141.173L79.0718 142.184L79.0721 141.173L79.9453 140.669L80.8185 141.173Z" fill="#6B59FF" />
    <path d="M82.5662 130.99L81.693 131.495L81.693 139.659L82.5662 139.154L82.5662 130.99Z" fill="#06061B" />
    <path d="M83.4392 130.484L82.566 130.988L82.566 139.154L83.4392 139.658L83.4392 130.484Z" fill="#402FC8" />
    <path d="M83.4389 139.659L81.6922 140.669L81.6925 139.659L82.5657 139.155L83.4389 139.659Z" fill="#6B59FF" />
    <path d="M74.7034 114.637L73.8302 115.141L73.8302 123.305L74.7034 122.801L74.7034 114.637Z" fill="#06061B" />
    <path d="M75.5764 114.131L74.7032 114.635L74.7032 122.801L75.5764 123.305L75.5764 114.131Z" fill="#402FC8" />
    <path d="M75.5758 123.305L73.8291 124.316L73.8294 123.305L74.7026 122.801L75.5758 123.305Z" fill="#6B59FF" />
    <path d="M77.3259 113.122L76.4527 113.626L76.4527 121.79L77.3259 121.286L77.3259 113.122Z" fill="#06061B" />
    <path d="M78.1992 112.616L77.326 113.121L77.326 121.286L78.1992 121.79L78.1992 112.616Z" fill="#402FC8" />
    <path d="M78.1986 121.791L76.4519 122.801L76.4522 121.791L77.3254 121.287L78.1986 121.791Z" fill="#6B59FF" />
    <path d="M79.9492 111.608L79.076 112.112L79.076 120.276L79.9492 119.772L79.9492 111.608Z" fill="#06061B" />
    <path d="M80.8223 111.101L79.9491 111.606L79.9491 119.772L80.8223 120.276L80.8223 111.101Z" fill="#402FC8" />
    <path d="M80.8217 120.276L79.075 121.286L79.0753 120.276L79.9485 119.772L80.8217 120.276Z" fill="#6B59FF" />
    <path d="M82.5725 110.093L81.6993 110.597L81.6993 118.761L82.5725 118.257L82.5725 110.093Z" fill="#06061B" />
    <path d="M83.4456 109.587L82.5724 110.091L82.5724 118.257L83.4456 118.761L83.4456 109.587Z" fill="#402FC8" />
    <path d="M83.445 118.761L81.6983 119.771L81.6986 118.761L82.5718 118.257L83.445 118.761Z" fill="#6B59FF" />
    <path d="M99.2537 116.61L97.7983 117.451L94.8996 115.777L96.3549 114.937L99.2537 116.61Z" fill="#6B59FF" />
    <path d="M96.3472 114.938L56.8535 137.74L56.8535 139.42L96.3472 116.618L96.3472 114.938Z" fill="#C9C9D9" />
    <path d="M58.3013 140.258L56.8459 141.098L50.9402 137.688L52.3956 136.848L58.3013 140.258Z" fill="#6B59FF" />
    <path d="M5.0332 107.84L2.13574 109.512L0.680409 108.672L3.57787 106.999L5.0332 107.84Z" fill="#6B59FF" />
    <path d="M99.2696 95.6611L95.2007 87.9136L52.887 112.39L56.941 120.128L99.2696 95.6611Z" fill="#3726C2" />
    <path d="M53.0078 112.303L57.0761 120.09" stroke="#AEA4FF" stroke-width="1.20131" />
    <path d="M99.3207 95.7396L57.0752 120.091" stroke="#AEA4FF" stroke-width="1.20131" />
    <rect width="42.0992" height="35.2465" transform="matrix(0.864779 0.502153 -0.864779 0.502153 47.0393 66.8833)"
        fill="#00D1FF" />
    <path d="M20.0471 86.6092L47.0657 70.9082L47.0657 74.9272L23.5095 88.6197L20.0471 86.6092Z" fill="#008EAD" />
    <path d="M47.0381 70.9239L79.9779 90.043L76.5238 92.0551L47.0381 74.9457L47.0381 70.9239Z" fill="#008EAD" />
    <path d="M47.0393 66.8833L83.4504 88.0273L79.9792 90.0436L47.0393 70.9519L47.0393 66.8833Z" fill="#402FC8" />
    <path d="M16.5588 84.5873L47.0461 66.8528L47.0461 70.9145L20.0552 86.6163L16.5588 84.5873Z" fill="#2D1EA6" />
    <path d="M11.7261 111.705L3.57622 107L3.57622 108.68L11.7261 113.386L11.7261 111.705Z" fill="#E2E2F0" />
    <path d="M7.96997 111.201L6.51464 112.042L0.679437 108.673L2.13477 107.832L7.96997 111.201Z" fill="#6B59FF" />
    <path d="M50.9414 137.693L56.8497 141.088L99.2508 116.612" stroke="#AEA4FF" />
    <path d="M0.6875 108.67L6.52517 112.038L11.5292 109.145" stroke="#AEA4FF" />
    <circle cx="20.5782" cy="20.5782" r="20.5782" transform="matrix(0.866025 0.5 -2.20305e-08 1 11.8862 90.7454)"
        fill="#2D1EA6" />
    <circle cx="20.5782" cy="20.5782" r="20.5782" transform="matrix(0.866025 0.5 -2.20305e-08 1 10.0901 91.7839)"
        fill="#06061B" />
    <path
        d="M17.4953 0H83.3586V81.6834C83.3586 84.6414 80.5789 87.0484 77.163 87.0484H23.6797C20.2638 87.0484 17.4841 84.6414 17.4841 81.6834V0H17.4953Z"
        fill="url(#paint0_linear_9588_32860)" />
    <path d="M75.3095 0H25.741V84.1629H75.3095V0Z" fill="url(#paint1_linear_9588_32860)" />
    <defs>
        <linearGradient id="paint0_linear_9588_32860" x1="50.4214" y1="0" x2="50.4214" y2="87.0484"
            gradientUnits="userSpaceOnUse">
            <stop stop-color="#2EDAFF" stop-opacity="0" />
            <stop offset="1" stop-color="#2EDAFF" stop-opacity="0.2" />
        </linearGradient>
        <linearGradient id="paint1_linear_9588_32860" x1="50.5252" y1="0" x2="50.5252" y2="84.1629"
            gradientUnits="userSpaceOnUse">
            <stop stop-color="#2EDAFF" stop-opacity="0" />
            <stop offset="0.864583" stop-color="#2EDAFF" stop-opacity="0.2" />
            <stop offset="1" stop-color="#2EDAFF" stop-opacity="0" />
        </linearGradient>
    </defs>
</svg>