<svg width="100" height="164" fill="none" viewBox="0 0 100 164" xmlns="http://www.w3.org/2000/svg">
  <path fill="#06061B" d="m54.49 132.703-8.208-4.739v8.061l8.208 4.738z"/>
  <mask id="a" fill="#fff">
    <path d="m95.218 87.91-42.421 24.492-48.063-27.75 42.421-24.491z"/>
  </mask>
  <path fill="#6B59FF" d="m95.218 87.91-42.421 24.492-48.063-27.75 42.421-24.491z"/>
  <path fill="#AEA4FF" d="m52.797 112.402-1.04.6 1.04.601 1.04-.601zm41.38-25.093-42.42 24.492 2.08 1.201L96.258 88.51zm-40.34 24.492L5.774 84.051l-2.08 1.202 48.062 27.749z" mask="url(#a)"/>
  <mask id="b" fill="#fff">
    <path d="m95.218 87.91-42.421 24.492-48.063-27.75 42.421-24.491z"/>
  </mask>
  <path fill="#6B59FF" d="m95.218 87.91-42.421 24.492-48.063-27.75 42.421-24.491z"/>
  <path fill="#AEA4FF" d="m52.797 112.402-1.04.6 1.04.601 1.04-.601zm41.38-25.093-42.42 24.492 2.08 1.201L96.258 88.51zm-40.34 24.492L5.774 84.051l-2.08 1.202 48.062 27.749z" mask="url(#b)"/>
  <path fill="#402FC8" d="m52.827 112.404-9.165-5.217-13.183-7.611-22.32-12.951L4.111 89.7v17.486l52.734 28.75v-16.411z"/>
  <path fill="#402FC8" d="m49.395 110.427-9.165-5.217-13.183-7.612-22.32-12.95L.68 87.723v14.094l52.734 31.51v-15.779zm7.433 30.662L.68 108.672v13.52l56.148 32.417z"/>
  <path fill="#402FC8" d="M56.828 124.225.68 91.808v13.52l56.148 32.417zM8.13 135.874l9.166 5.217 13.184 7.612 21.708 12.578 4.658-2.704v-19.252 9.378L4.113 123.295v5.458z"/>
  <path fill="#402FC8" d="m4.698 133.952 9.165 5.217 13.184 7.612 21.708 12.579 4.658-2.705v-9.299L.68 121.5v5.331z"/>
  <mask id="c" fill="#fff">
    <path d="M99.254 95.654 56.846 120.14v17.605l42.408-24.484z"/>
  </mask>
  <path fill="#2D1EA6" d="M99.254 95.654 56.846 120.14v17.605l42.408-24.484z"/>
  <path fill="#AEA4FF" d="M57.886 119.538v17.606l-2.08 1.201v-17.606z" mask="url(#c)"/>
  <mask id="d" fill="#fff">
    <path d="m99.254 116.61-42.408 24.485v17.487l42.408-24.484z"/>
  </mask>
  <path fill="#2D1EA6" d="m99.254 116.61-42.408 24.485v17.487l42.408-24.484z"/>
  <path fill="#AEA4FF" d="M57.886 140.494v17.487l-2.08 1.202v-17.488z" mask="url(#d)"/>
  <path fill="#6B59FF" d="m99.255 116.613-40.953 23.645-1.456-.841L97.8 115.773z"/>
  <path fill="#06061B" d="m74.703 135.535-.873.504v8.164l.873-.504z"/>
  <path fill="#402FC8" d="m75.576 135.028-.873.505v8.165l.873.505z"/>
  <path fill="#6B59FF" d="m75.576 144.203-1.747 1.011v-1.011l.874-.504z"/>
  <path fill="#06061B" d="m77.325 134.02-.873.504v8.164l.873-.504z"/>
  <path fill="#402FC8" d="m78.198 133.514-.873.504v8.166l.873.504z"/>
  <path fill="#6B59FF" d="m78.198 142.688-1.747 1.011v-1.011l.874-.504z"/>
  <path fill="#06061B" d="m79.946 132.505-.873.505v8.163l.873-.504z"/>
  <path fill="#402FC8" d="m80.819 131.999-.873.504v8.166l.873.504z"/>
  <path fill="#6B59FF" d="m80.819 141.173-1.747 1.011v-1.011l.873-.504z"/>
  <path fill="#06061B" d="m82.566 130.99-.873.505v8.164l.873-.505z"/>
  <path fill="#402FC8" d="m83.44 130.484-.874.504v8.166l.873.504z"/>
  <path fill="#6B59FF" d="m83.439 139.659-1.747 1.01v-1.01l.874-.504z"/>
  <path fill="#06061B" d="m74.703 114.637-.873.504v8.164l.873-.504z"/>
  <path fill="#402FC8" d="m75.576 114.131-.873.504v8.166l.873.504z"/>
  <path fill="#6B59FF" d="m75.576 123.305-1.747 1.011v-1.011l.874-.504z"/>
  <path fill="#06061B" d="m77.326 113.122-.873.504v8.164l.873-.504z"/>
  <path fill="#402FC8" d="m78.2 112.616-.874.505v8.165l.873.504z"/>
  <path fill="#6B59FF" d="m78.199 121.791-1.747 1.01v-1.01l.873-.504z"/>
  <path fill="#06061B" d="m79.95 111.608-.874.504v8.164l.873-.504z"/>
  <path fill="#402FC8" d="m80.822 111.101-.873.505v8.166l.873.504z"/>
  <path fill="#6B59FF" d="m80.822 120.276-1.747 1.01v-1.01l.873-.504z"/>
  <path fill="#06061B" d="m82.573 110.093-.874.504v8.164l.874-.504z"/>
  <path fill="#402FC8" d="m83.446 109.587-.874.504v8.166l.874.504z"/>
  <path fill="#6B59FF" d="m83.445 118.761-1.747 1.01v-1.01l.874-.504zm15.809-2.151-1.456.841-2.898-1.674 1.455-.84z"/>
  <path fill="#C9C9D9" d="M96.347 114.938 56.854 137.74v1.68l39.493-22.802z"/>
  <path fill="#6B59FF" d="m58.301 140.258-1.455.84-5.906-3.41 1.456-.84zM5.033 107.84l-2.897 1.672-1.456-.84 2.898-1.673z"/>
  <path fill="#3726C2" d="m99.27 95.661-4.07-7.747-42.313 24.476 4.054 7.738z"/>
  <path stroke="#AEA4FF" stroke-width="1.201" d="m53.008 112.303 4.068 7.787M99.32 95.74l-42.244 24.35"/>
  <path fill="#00D1FF" d="m47.04 66.883 36.406 21.14-30.48 17.7-36.407-21.14z"/>
  <path fill="#008EAD" d="m20.047 86.61 27.019-15.702v4.02L23.509 88.62z"/>
  <path fill="#008EAD" d="m47.038 70.924 32.94 19.119-3.454 2.012-29.486-17.11z"/>
  <path fill="#402FC8" d="m47.04 66.883 36.41 21.144-3.47 2.017-32.94-19.092z"/>
  <path fill="#2D1EA6" d="m16.559 84.587 30.487-17.734v4.062l-26.99 15.701z"/>
  <path fill="#E2E2F0" d="M11.726 111.705 3.576 107v1.68l8.15 4.706z"/>
  <path fill="#6B59FF" d="m7.97 111.201-1.455.841-5.836-3.369 1.456-.841z"/>
  <path stroke="#AEA4FF" d="m50.941 137.693 5.909 3.395 42.4-24.476M.688 108.67l5.837 3.368 5.004-2.893"/>
  <circle cx="20.578" cy="20.578" r="20.578" fill="#2D1EA6" transform="matrix(.86603 .5 0 1 11.886 90.745)"/>
  <circle cx="20.578" cy="20.578" r="20.578" fill="#06061B" transform="matrix(.86603 .5 0 1 10.09 91.784)"/>
  <path fill="url(#e)" d="M17.495 0H83.36v81.683c0 2.958-2.78 5.365-6.196 5.365H23.68c-3.416 0-6.196-2.407-6.196-5.365V0z"/>
  <path fill="url(#f)" d="M75.31 0H25.74v84.163h49.57z"/>
  <defs>
    <linearGradient id="e" x1="50.421" x2="50.421" y1="0" y2="87.048" gradientUnits="userSpaceOnUse">
      <stop stop-color="#2EDAFF" stop-opacity="0"/>
      <stop offset="1" stop-color="#2EDAFF" stop-opacity=".2"/>
    </linearGradient>
    <linearGradient id="f" x1="50.525" x2="50.525" y1="0" y2="84.163" gradientUnits="userSpaceOnUse">
      <stop stop-color="#2EDAFF" stop-opacity="0"/>
      <stop offset=".865" stop-color="#2EDAFF" stop-opacity=".2"/>
      <stop offset="1" stop-color="#2EDAFF" stop-opacity="0"/>
    </linearGradient>
  </defs>
</svg>
