<svg width="43" height="30" fill="none" xmlns="http://www.w3.org/2000/svg">
  <g clip-path="url(#a)">
    <path fill="#00DCFF" d="M10.246 6.965a1.4 1.4 0 0 0-1.096-.508H.266a.26.26 0 0 1-.192-.075A.23.23 0 0 1 0 6.218V.239A.23.23 0 0 1 .074.075.26.26 0 0 1 .266 0h9.388q3.553 0 6.13 2.9l2.28 2.78-4.442 5.41zM26.653 2.87Q29.228 0 32.813 0h9.357q.119 0 .178.06.06.06.06.179v5.979q0 .09-.06.164t-.178.075h-8.884a1.4 1.4 0 0 0-1.095.508l-6.545 7.952 6.574 8.01q.444.48 1.066.48h8.884q.119 0 .178.074.06.075.06.194v5.979q0 .09-.06.164t-.178.075h-9.358q-3.583 0-6.13-2.9l-5.448-6.636-5.45 6.636q-2.576 2.9-6.16 2.9H.266q-.118 0-.178-.075a.3.3 0 0 1-.059-.195v-5.979q0-.089.06-.164.059-.075.177-.074H9.15q.622 0 1.096-.509l6.426-7.831z"/>
    <path fill="#00D1FF" d="M10.246 6.965a1.4 1.4 0 0 0-1.096-.508H.266a.26.26 0 0 1-.192-.075A.23.23 0 0 1 0 6.218V.239A.23.23 0 0 1 .074.075.26.26 0 0 1 .266 0h9.388q3.553 0 6.13 2.9l2.28 2.78-4.442 5.41zM26.653 2.87Q29.228 0 32.813 0h9.357q.119 0 .178.06.06.06.06.179v5.979q0 .09-.06.164t-.178.075h-8.884a1.4 1.4 0 0 0-1.095.508l-6.545 7.952 6.574 8.01q.444.48 1.066.48h8.884q.119 0 .178.074.06.075.06.194v5.979q0 .09-.06.164t-.178.075h-9.358q-3.583 0-6.13-2.9l-5.448-6.636-5.45 6.636q-2.576 2.9-6.16 2.9H.266q-.118 0-.178-.075a.3.3 0 0 1-.059-.195v-5.979q0-.089.06-.164.059-.075.177-.074H9.15q.622 0 1.096-.509l6.426-7.831z"/>
  </g>
  <defs>
    <clipPath id="a">
      <path fill="#fff" d="M0 0h42.407v29.894H0z"/>
    </clipPath>
  </defs>
</svg>
