<svg width="762" height="56" fill="none" viewBox="0 0 762 56" xmlns="http://www.w3.org/2000/svg">
  <path fill="#00D1FF" d="M73.492 26.212q-4.871-4.76-11.71-4.76H16.58q-1.26 0-2.162-.877a2.86 2.86 0 0 1-.903-2.134v-3.666q0-1.202.903-2.08a3 3 0 0 1 2.162-.876h58.28a.48.48 0 0 0 .355-.137.42.42 0 0 0 .137-.3V.437q0-.217-.137-.328A.56.56 0 0 0 74.86 0H16.58Q9.687 0 4.844 4.762 0 9.522 0 16.252v.712q0 6.786 4.843 11.547 4.842 4.76 11.738 4.76h45.2q1.205 0 2.106.848.904.849.903 2.108v3.665q0 1.26-.903 2.108t-2.106.848H3.448a.42.42 0 0 0-.3.137.48.48 0 0 0-.138.357v10.944q0 .165.137.3a.42.42 0 0 0 .3.138h58.334q6.84 0 11.71-4.788t4.871-11.52v-.712q-.001-6.732-4.87-11.492M171.622 0h-12.641a.47.47 0 0 0-.301.109q-.137.11-.137.328v13.9q0 1.805-1.86 2.736l-25.226 10.45-25.226-10.45q-1.86-.93-1.861-2.737V.437q0-.217-.109-.328-.112-.108-.329-.109H91.29a.47.47 0 0 0-.3.109q-.137.11-.137.328v15.924q0 3.559 1.97 6.512 1.97 2.954 5.363 4.377l26.486 11.108v15.87a.48.48 0 0 0 .137.357.48.48 0 0 0 .355.137h12.641a.42.42 0 0 0 .3-.137.48.48 0 0 0 .137-.356v-15.87l26.486-11.053c2.26-.986 4.05-2.454 5.362-4.405q1.97-2.927 1.969-6.485V.437q0-.217-.137-.328a.47.47 0 0 0-.3-.109m93.894 0h-12.641q-.22 0-.328.137a.46.46 0 0 0-.109.3v42.464h-5.308q-1.479 0-2.517-1.313L220.098 5.745Q216.156.219 209.208 0h-21.122a.48.48 0 0 0-.356.137.42.42 0 0 0-.137.3v53.846q0 .165.137.3a.48.48 0 0 0 .356.138h12.641a.42.42 0 0 0 .301-.137.42.42 0 0 0 .137-.3V11.818h5.308q1.477 0 2.517 1.368l24.515 35.843q3.94 5.528 10.89 5.69h21.123q.217 0 .328-.136a.47.47 0 0 0 .109-.3V.436a.48.48 0 0 0-.109-.3q-.112-.137-.33-.137Zm91.366 0H279.45q-.22 0-.328.137a.46.46 0 0 0-.109.3v10.945q-.001.164.109.3.108.137.328.137h31.957v42.464q0 .165.109.3.11.138.329.138h12.641q.219 0 .328-.137a.47.47 0 0 0 .109-.3V11.818h31.957a.48.48 0 0 0 .355-.137.42.42 0 0 0 .137-.3V.437a.42.42 0 0 0-.137-.3.47.47 0 0 0-.353-.137m93.893 0h-12.641a.42.42 0 0 0-.301.137.42.42 0 0 0-.137.3V21.45h-51.22V.437a.42.42 0 0 0-.137-.3.5.5 0 0 0-.355-.137h-12.641a.42.42 0 0 0-.3.137.42.42 0 0 0-.137.3v53.846q0 .165.137.3a.42.42 0 0 0 .3.138h12.641a.48.48 0 0 0 .355-.137.42.42 0 0 0 .137-.3V33.27h51.22v21.012q0 .165.137.3a.42.42 0 0 0 .301.138h12.641a.48.48 0 0 0 .355-.137.42.42 0 0 0 .137-.3V.436a.43.43 0 0 0-.137-.3.48.48 0 0 0-.355-.137Zm93.558 0h-61.342q-6.841 0-11.71 4.76-4.871 4.761-4.871 11.492v22.162q0 6.786 4.871 11.547 4.869 4.76 11.71 4.761h61.342a.42.42 0 0 0 .301-.137.42.42 0 0 0 .137-.3V43.34q0-.219-.137-.328a.48.48 0 0 0-.301-.11h-61.342q-1.26.001-2.134-.874-.877-.875-.877-2.08v-6.677h64.314q.217 0 .328-.137a.48.48 0 0 0 .109-.3V21.888q0-.219-.109-.329-.11-.108-.328-.109H479.98v-6.676q0-1.203.877-2.08.874-.875 2.134-.876h61.342q.164 0 .301-.137a.42.42 0 0 0 .137-.3V.437a.42.42 0 0 0-.137-.3.42.42 0 0 0-.301-.137m93.45 0h-77.432q-.22 0-.328.137a.46.46 0 0 0-.109.3v10.945q-.001.164.109.3.109.137.328.137h31.957v42.464q0 .165.109.3.11.138.329.138h12.641q.219 0 .328-.137a.46.46 0 0 0 .109-.3V11.818h31.957a.48.48 0 0 0 .355-.137.42.42 0 0 0 .137-.3V.437a.42.42 0 0 0-.137-.3.48.48 0 0 0-.353-.137m29.431.109q-.11-.108-.329-.109h-12.64q-.22 0-.329.109-.11.11-.109.328v53.846q-.001.165.109.3.109.138.329.138h12.64q.218 0 .329-.137a.48.48 0 0 0 .109-.3V.436q0-.217-.109-.328Zm34.9 13.189q-.822-.93-2.025-.93h-16.416a.48.48 0 0 1-.355-.138.4.4 0 0 1-.137-.3V.985q0-.163.137-.3a.48.48 0 0 1 .355-.137h17.346q6.567 0 11.328 5.308l4.213 5.089-8.208 9.904zm30.314-7.496Q737.189.548 743.81.548h17.292q.218 0 .329.11.109.11.109.327V11.93q0 .164-.109.3-.11.137-.329.137h-16.416q-1.203 0-2.025.931l-12.093 14.556 12.148 14.665q.82.876 1.97.876h16.416q.218 0 .329.137.109.137.109.355V54.83a.47.47 0 0 1-.109.3q-.11.138-.329.138h-17.29q-6.622 0-11.328-5.308l-10.068-12.148-10.069 12.148q-4.761 5.308-11.382 5.308h-17.292q-.22 0-.329-.137a.55.55 0 0 1-.109-.357V43.831a.47.47 0 0 1 .109-.3q.109-.138.329-.137h16.416q1.147 0 2.025-.931l11.873-14.337z"/>
</svg>
